<?xml version="1.0" encoding="utf-8"?>
<!-- Generator: Adobe Illustrator 16.0.0, SVG Export Plug-In . SVG Version: 6.00 Build 0)  -->
<!DOCTYPE svg PUBLIC "-//W3C//DTD SVG 1.1//EN" "http://www.w3.org/Graphics/SVG/1.1/DTD/svg11.dtd">
<svg version="1.1" xmlns="http://www.w3.org/2000/svg" xmlns:xlink="http://www.w3.org/1999/xlink" x="0px" y="0px"
	 width="841.89px" height="595.28px" viewBox="0 0 841.89 595.28" enable-background="new 0 0 841.89 595.28" xml:space="preserve">
<g id="bottom-left">
	<path fill-rule="evenodd" clip-rule="evenodd" fill="#1DB8D1" d="M164.954,367.372c42.192,0,84.396,0,126.589,0
		c21.096,36.331,42.198,72.675,63.294,109.007c-21.292,36.723-42.589,73.456-63.88,110.179c-41.997,0-84.005,0-126.002,0
		c-21.096-36.527-42.198-73.065-63.294-109.593C122.756,440.438,143.858,403.898,164.954,367.372z"/>
</g>
<g id="pc">
	<rect x="169.642" y="439.457" fill-rule="evenodd" clip-rule="evenodd" fill="#FFFFFF" width="86.151" height="58.605"/>
	<path fill-rule="evenodd" clip-rule="evenodd" fill="#FFFFFF" d="M169.642,500.406c0,0,0.203,0,0.586,0c7.553,0,85.565,0,85.565,0
		s0.22,7.692-8.791,7.619c-9.011-0.073-58.826,0.073-67.983,0S169.642,500.406,169.642,500.406z"/>
	<path fill-rule="evenodd" clip-rule="evenodd" fill="#FFFFFF" d="M204.806,510.37h15.824c0,0-0.342,5.15,1.806,6.549
		c3.381,1.783,6.49,2.12,9.329,2.242c5.128,0.22,4.103,4.103,4.103,4.103h-46.299c0,0-1.245-4.029,4.688-4.103
		c2.178-0.03,7.239-0.941,9.009-2.563C205.169,515.102,204.806,510.37,204.806,510.37z"/>
	<path fill-rule="evenodd" clip-rule="evenodd" fill="#FFFFFF" d="M261.067,439.457h12.894v62.122c0,0,0.073,1.758,1.172,1.758
		c1.1,0,1.172-1.758,1.172-1.758v-62.122h12.894c0,0,0,76.041,0,78.532c0,2.49-1.905,5.347-5.275,5.274
		c-3.369-0.074-12.088,0-15.823,0c-4.688,0.072-7.106-2.784-7.033-5.202C261.141,515.644,261.067,439.457,261.067,439.457z"/>
	<circle fill-rule="evenodd" clip-rule="evenodd" fill="#44B4E5" cx="275.133" cy="512.128" r="4.103"/>
</g>
<g id="top-left">
	<path fill-rule="evenodd" clip-rule="evenodd" fill="#1DB8D1" d="M164.954,129.432c42.192,0,84.396,0,126.589,0
		c21.096,36.333,42.198,72.675,63.294,109.007c-21.292,36.723-42.589,73.457-63.88,110.18c-41.997,0-84.005,0-126.002,0
		c-21.096-36.528-42.198-73.066-63.294-109.593C122.756,202.498,143.858,165.959,164.954,129.432z"/>
</g>
<g id="wifi">
	<path fill-rule="evenodd" clip-rule="evenodd" fill="#FFFFFF" d="M227.663,279.463c4.208,0,7.619,3.279,7.619,7.326
		c0,4.046-3.411,7.326-7.619,7.326c-4.208,0-7.619-3.28-7.619-7.326C220.044,282.742,223.454,279.463,227.663,279.463z"/>
	<path fill-rule="evenodd" clip-rule="evenodd" fill="#FFFFFF" d="M228.249,256.021c9.545-0.037,17.736,3.883,22.856,9.963
		c-1.755,1.611-8.448,7.985-10.532,9.963c-3.255-3.369-6.729-5.128-12.324-5.274c-3.438,0,2.271,0-1.172,0
		c-5.604,0.146-9.047,1.905-12.307,5.274c-2.088-1.978-8.791-8.352-10.549-9.963c5.128-6.08,13.296-10,22.856-9.963
		C236.637,256.058,218.703,256.058,228.249,256.021z"/>
	<path fill-rule="evenodd" clip-rule="evenodd" fill="#FFFFFF" d="M228.249,230.234c8.864,0.037,27.984,3.187,40.438,17.582
		c-2.455,2.491-7.875,7.802-9.963,9.963c-12.893-11.575-23.772-12.894-30.475-12.894c-6.703,0,5.531,0-1.172,0
		s-17.582,1.318-30.475,12.894c-2.088-2.161-7.509-7.472-9.963-9.963c12.454-14.395,31.574-17.545,40.438-17.582
		C235.757,230.271,219.567,230.271,228.249,230.234z"/>
	<path fill-rule="evenodd" clip-rule="evenodd" fill="#FFFFFF" d="M228.249,205.033c16.483,0,39.131,5.14,58.605,24.615
		c-2.455,2.49-7.875,7.802-9.962,9.962c-12.894-12.893-30.268-19.926-48.643-19.926c-6.703,0,5.531,0-1.172,0
		c-17.594,0-35.859,7.143-48.643,19.926c-2.087-2.161-7.509-7.472-9.962-9.962c20.805-20.806,40.938-24.615,58.605-24.615
		C235.757,205.07,219.567,205.07,228.249,205.033z"/>
</g>
<g id="center-center">
	<path fill-rule="evenodd" clip-rule="evenodd" fill="#1DB8D1" d="M365.972,248.402c42.193,0,84.397,0,126.589,0
		c21.096,36.332,42.199,72.674,63.295,109.007c-21.291,36.722-42.59,73.456-63.881,110.179c-41.996,0-84.006,0-126.003,0
		c-21.096-36.527-42.198-73.065-63.294-109.594C323.774,321.467,344.876,284.929,365.972,248.402z"/>
</g>
<g id="house">
	<path fill-rule="evenodd" clip-rule="evenodd" fill="#FFFFFF" d="M429.853,302.905l-56.261,50.987c0,0,0,69.521,0,72.085
		c0,2.563,0.439,3.516,2.93,3.516c2.491,0,35.749,0,35.749,0s0-29.962,0-32.232c0-1.904,1.539-2.93,2.931-2.93
		c0.953,0,12.893,0,12.893,0h4.688c0,0,11.941,0,12.894,0c1.393,0,2.931,1.025,2.931,2.93c0,2.271,0,32.232,0,32.232
		s33.259,0,35.75,0c2.49,0,2.93-0.952,2.93-3.516c0-2.564,0-72.085,0-72.085l-56.261-50.987l-0.586-0.587L429.853,302.905z"/>
	<path fill-rule="evenodd" clip-rule="evenodd" fill="#FFFFFF" d="M431.025,274.775L511.9,346.86l-8.205,9.963l-72.67-65.053h-1.173
		l-72.671,65.053l-8.205-9.963l80.876-72.085H431.025z"/>
	<path fill-rule="evenodd" clip-rule="evenodd" fill="#FFFFFF" d="M373.005,285.323h21.099v11.722l-21.099,18.753V285.323z"/>
</g>
<g id="top-right">
	<path fill-rule="evenodd" clip-rule="evenodd" fill="#1DB8D1" d="M568.162,129.432c42.192,0,84.396,0,126.589,0
		c21.096,36.333,42.198,72.675,63.294,109.007c-21.291,36.723-42.589,73.457-63.88,110.18c-41.997,0-84.006,0-126.003,0
		c-21.096-36.528-42.198-73.066-63.294-109.593C525.964,202.498,547.066,165.959,568.162,129.432z"/>
</g>
<g id="tv">
	<path fill-rule="evenodd" clip-rule="evenodd" fill="#FFFFFF" d="M574.022,198.587H688.89v68.569h-50.986v7.032
		c0,0,36.519-0.476,37.508,4.103c-1.318,4.322-29.45,4.688-37.508,4.688c-7.436,0-2.967,0-11.722,0
		c-8.754,0-36.078-0.513-36.921-4.688c1.208-4.798,36.921-4.103,36.921-4.103v-7.032h-52.159V198.587z"/>
	<path fill-rule="evenodd" clip-rule="evenodd" fill="#44B4E5" d="M578.711,202.689v60.364h106.077v-60.364H578.711z"/>
	<path fill-rule="evenodd" clip-rule="evenodd" fill="#FFFFFF" d="M581.643,205.033v55.675h100.216v-55.675H581.643z"/>
</g>
<g id="bottom-right">
	<path fill-rule="evenodd" clip-rule="evenodd" fill="#1DB8D1" d="M568.162,367.372c42.192,0,84.396,0,126.589,0
		c21.096,36.331,42.198,72.675,63.294,109.007c-21.291,36.723-42.589,73.456-63.88,110.179c-41.997,0-84.006,0-126.003,0
		c-21.096-36.527-42.198-73.065-63.294-109.593C525.964,440.438,547.066,403.898,568.162,367.372z"/>
</g>
<g id="phone">
	<path fill-rule="evenodd" clip-rule="evenodd" fill="#FFFFFF" d="M632.629,420.703c0,0,19.377,0,21.685,0
		c3.846,0,7.618,4.028,7.618,7.619c0,4.396,0,93.622,0,96.699c0,3.076-3.04,7.618-7.032,7.618c-3.993,0-22.271,0-22.271,0h-1.172
		c0,0-19.45,0-23.442,0c-3.993,0-7.033-4.542-7.033-7.618c0-3.077,0-92.304,0-96.699c0-3.591,3.773-7.619,7.618-7.619
		c2.309,0,22.857,0,22.857,0H632.629z"/>
	<path fill-rule="evenodd" clip-rule="evenodd" fill="#1DB8D1" d="M608.015,439.457h46.885v75.016h-46.885V439.457z"/>
	<path fill-rule="evenodd" clip-rule="evenodd" fill="#44B4E5" d="M632.629,431.252c2.931,0,5.274,0.165,5.274-1.172
		s-2.362-1.172-5.274-1.172s1.74,0-1.172,0s-5.861-0.165-5.861,1.172s2.931,1.172,5.861,1.172
		C634.387,431.252,629.698,431.252,632.629,431.252z"/>
	<path fill-rule="evenodd" clip-rule="evenodd" fill="#44B4E5" d="M631.749,519.161c2.428,0,4.396,1.967,4.396,4.396
		c0,2.428-1.969,4.396-4.396,4.396c-2.427,0-4.395-1.968-4.395-4.396C627.354,521.128,629.322,519.161,631.749,519.161z"/>
</g>
<g id="top-center">
	<path fill-rule="evenodd" clip-rule="evenodd" fill="#1DB8D1" d="M365.972,8.704c42.193,0,84.397,0,126.589,0
		c21.096,36.332,42.199,72.675,63.295,109.007c-21.291,36.723-42.59,73.457-63.881,110.179c-41.996,0-84.006,0-126.003,0
		c-21.096-36.527-42.198-73.065-63.294-109.592C323.774,81.77,344.876,45.231,365.972,8.704z"/>
</g>
<g id="cloud">
	<path fill-rule="evenodd" clip-rule="evenodd" fill="#FFFFFF" d="M381.21,155.804c12.978,0,96.196,0,100.216,0
		c7.702,0,16.409-9.209,16.409-21.098c0-11.386,0,4.688,0-4.689c0-9.376-6.781-24.028-25.786-22.27
		c2.512-6.531,1.864-15.17,1.864-15.17c-0.837-13.875-14.988-26.357-28.823-26.44c-9.083,0,5.777,0-2.931,0
		c-13.145,0-26.624,8.958-29.889,26.372c-3.265-2.679-5.442-6.446-15.823-6.446c-6.865,0.083-15.991,10.047-11.135,19.34
		c-13.313-1.423-25.201,11.302-25.201,24.028c0,10.131,0-3.851,0,2.344C360.111,140.65,367.73,155.804,381.21,155.804z"/>
</g>
</svg>
