<svg xmlns="http://www.w3.org/2000/svg" xmlns:xlink="http://www.w3.org/1999/xlink" version="1.1" x="0px" y="0px" width="656.4px" height="577.9px" viewBox="0 0 656.4 577.9" enable-background="new 0 0 656.4 577.9" xml:space="preserve">
  <g id="bottom-left">
    <path fill-rule="evenodd" clip-rule="evenodd" fill="#1DB8D1" d="M63.3 358.7c42.2 0 84.4 0 126.6 0 21.1 36.3 42.2 72.7 63.3 109 -21.3 36.7-42.6 73.5-63.9 110.2 -42 0-84 0-126 0C42.2 541.3 21.1 504.8 0 468.3 21.1 431.7 42.2 395.2 63.3 358.7z"/>
  </g>
  <g id="pc">
    <rect x="68" y="430.8" fill-rule="evenodd" clip-rule="evenodd" fill="#FFFFFF" width="86.2" height="58.6"/>
    <path fill-rule="evenodd" clip-rule="evenodd" fill="#FFFFFF" d="M68 491.7c0 0 0.2 0 0.6 0 7.6 0 85.6 0 85.6 0s0.2 7.7-8.8 7.6c-9-0.1-58.8 0.1-68 0S68 491.7 68 491.7zM103.1 501.7H119c0 0-0.3 5.2 1.8 6.5 3.4 1.8 6.5 2.1 9.3 2.2 5.1 0.2 4.1 4.1 4.1 4.1H87.9c0 0-1.2-4 4.7-4.1 2.2 0 7.2-0.9 9-2.6C103.5 506.4 103.1 501.7 103.1 501.7zM159.4 430.8h12.9v62.1c0 0 0.1 1.8 1.2 1.8 1.1 0 1.2-1.8 1.2-1.8v-62.1h12.9c0 0 0 76 0 78.5 0 2.5-1.9 5.3-5.3 5.3 -3.4-0.1-12.1 0-15.8 0 -4.7 0.1-7.1-2.8-7-5.2C159.5 506.9 159.4 430.8 159.4 430.8z"/>
    <circle fill-rule="evenodd" clip-rule="evenodd" fill="#44B4E5" cx="173.5" cy="503.4" r="4.1"/>
  </g>
  <g id="top-left">
    <path fill-rule="evenodd" clip-rule="evenodd" fill="#1DB8D1" d="M63.3 120.7c42.2 0 84.4 0 126.6 0 21.1 36.3 42.2 72.7 63.3 109 -21.3 36.7-42.6 73.5-63.9 110.2 -42 0-84 0-126 0C42.2 303.4 21.1 266.8 0 230.3 21.1 193.8 42.2 157.3 63.3 120.7z"/>
  </g>
  <g id="wifi">
    <path fill-rule="evenodd" clip-rule="evenodd" fill="#FFFFFF" d="M126 270.8c4.2 0 7.6 3.3 7.6 7.3 0 4-3.4 7.3-7.6 7.3 -4.2 0-7.6-3.3-7.6-7.3C118.4 274 121.8 270.8 126 270.8zM126.6 247.3c9.5 0 17.7 3.9 22.9 10 -1.8 1.6-8.4 8-10.5 10 -3.3-3.4-6.7-5.1-12.3-5.3 -3.4 0 2.3 0-1.2 0 -5.6 0.1-9 1.9-12.3 5.3 -2.1-2-8.8-8.4-10.5-10 5.1-6.1 13.3-10 22.9-10C135 247.4 117 247.4 126.6 247.3zM126.6 221.5c8.9 0 28 3.2 40.4 17.6 -2.5 2.5-7.9 7.8-10 10 -12.9-11.6-23.8-12.9-30.5-12.9 -6.7 0 5.5 0-1.2 0s-17.6 1.3-30.5 12.9c-2.1-2.2-7.5-7.5-10-10 12.5-14.4 31.6-17.5 40.4-17.6C134.1 221.6 117.9 221.6 126.6 221.5zM126.6 196.3c16.5 0 39.1 5.1 58.6 24.6 -2.5 2.5-7.9 7.8-10 10C162.3 218 145 211 126.6 211c-6.7 0 5.5 0-1.2 0 -17.6 0-35.9 7.1-48.6 19.9 -2.1-2.2-7.5-7.5-10-10 20.8-20.8 40.9-24.6 58.6-24.6C134.1 196.4 117.9 196.4 126.6 196.3z"/>
  </g>
  <g id="center-center">
    <path fill-rule="evenodd" clip-rule="evenodd" fill="#1DB8D1" d="M264.3 239.7c42.2 0 84.4 0 126.6 0 21.1 36.3 42.2 72.7 63.3 109 -21.3 36.7-42.6 73.5-63.9 110.2 -42 0-84 0-126 0 -21.1-36.5-42.2-73.1-63.3-109.6C222.1 312.8 243.2 276.2 264.3 239.7z"/>
  </g>
  <g id="house">
    <path fill-rule="evenodd" clip-rule="evenodd" fill="#FFFFFF" d="M328.2 294.2l-56.3 51c0 0 0 69.5 0 72.1 0 2.6 0.4 3.5 2.9 3.5 2.5 0 35.7 0 35.7 0s0-30 0-32.2c0-1.9 1.5-2.9 2.9-2.9 1 0 12.9 0 12.9 0h4.7c0 0 11.9 0 12.9 0 1.4 0 2.9 1 2.9 2.9 0 2.3 0 32.2 0 32.2s33.3 0 35.8 0c2.5 0 2.9-1 2.9-3.5 0-2.6 0-72.1 0-72.1l-56.3-51 -0.6-0.6L328.2 294.2zM329.4 266.1l80.9 72.1 -8.2 10 -72.7-65.1h-1.2l-72.7 65.1 -8.2-10 80.9-72.1H329.4zM271.3 276.6h21.1v11.7l-21.1 18.8V276.6z"/>
  </g>
  <g id="top-right">
    <path fill-rule="evenodd" clip-rule="evenodd" fill="#1DB8D1" d="M466.5 120.7c42.2 0 84.4 0 126.6 0 21.1 36.3 42.2 72.7 63.3 109 -21.3 36.7-42.6 73.5-63.9 110.2 -42 0-84 0-126 0 -21.1-36.5-42.2-73.1-63.3-109.6C424.3 193.8 445.4 157.3 466.5 120.7z"/>
  </g>
  <g id="tv">
    <path fill-rule="evenodd" clip-rule="evenodd" fill="#FFFFFF" d="M472.4 189.9h114.9v68.6h-51v7c0 0 36.5-0.5 37.5 4.1 -1.3 4.3-29.5 4.7-37.5 4.7 -7.4 0-3 0-11.7 0 -8.8 0-36.1-0.5-36.9-4.7 1.2-4.8 36.9-4.1 36.9-4.1v-7h-52.2V189.9zM477.1 194v60.4h106.1V194H477.1zM480 196.3V252h100.2v-55.7H480z"/>
  </g>
  <g id="bottom-right">
    <path fill-rule="evenodd" clip-rule="evenodd" fill="#1DB8D1" d="M466.5 358.7c42.2 0 84.4 0 126.6 0 21.1 36.3 42.2 72.7 63.3 109 -21.3 36.7-42.6 73.5-63.9 110.2 -42 0-84 0-126 0 -21.1-36.5-42.2-73.1-63.3-109.6C424.3 431.7 445.4 395.2 466.5 358.7z"/>
  </g>
  <g id="phone">
    <path fill-rule="evenodd" clip-rule="evenodd" fill="#FFFFFF" d="M531 412c0 0 19.4 0 21.7 0 3.8 0 7.6 4 7.6 7.6 0 4.4 0 93.6 0 96.7 0 3.1-3 7.6-7 7.6 -4 0-22.3 0-22.3 0h-1.2c0 0-19.5 0-23.4 0 -4 0-7-4.5-7-7.6 0-3.1 0-92.3 0-96.7 0-3.6 3.8-7.6 7.6-7.6 2.3 0 22.9 0 22.9 0H531zM506.4 430.8h46.9v75h-46.9V430.8zM531 422.5c2.9 0 5.3 0.2 5.3-1.2s-2.4-1.2-5.3-1.2 1.7 0-1.2 0 -5.9-0.2-5.9 1.2 2.9 1.2 5.9 1.2C532.7 422.5 528 422.5 531 422.5zM530.1 510.5c2.4 0 4.4 2 4.4 4.4 0 2.4-2 4.4-4.4 4.4 -2.4 0-4.4-2-4.4-4.4C525.7 512.4 527.7 510.5 530.1 510.5z"/>
  </g>
  <g id="top-center">
    <path fill-rule="evenodd" clip-rule="evenodd" fill="#1DB8D1" d="M264.3 0c42.2 0 84.4 0 126.6 0 21.1 36.3 42.2 72.7 63.3 109 -21.3 36.7-42.6 73.5-63.9 110.2 -42 0-84 0-126 0 -21.1-36.5-42.2-73.1-63.3-109.6C222.1 73.1 243.2 36.5 264.3 0z"/>
  </g>
  <g id="cloud">
    <path fill-rule="evenodd" clip-rule="evenodd" fill="#FFFFFF" d="M279.6 147.1c13 0 96.2 0 100.2 0 7.7 0 16.4-9.2 16.4-21.1 0-11.4 0 4.7 0-4.7 0-9.4-6.8-24-25.8-22.3 2.5-6.5 1.9-15.2 1.9-15.2 -0.8-13.9-15-26.4-28.8-26.4 -9.1 0 5.8 0-2.9 0 -13.1 0-26.6 9-29.9 26.4 -3.3-2.7-5.4-6.4-15.8-6.4 -6.9 0.1-16 10-11.1 19.3 -13.3-1.4-25.2 11.3-25.2 24 0 10.1 0-3.9 0 2.3C258.5 131.9 266.1 147.1 279.6 147.1z"/>
  </g>
</svg>
