<?xml version="1.0" encoding="utf-8"?>
<!-- Generator: Adobe Illustrator 16.0.0, SVG Export Plug-In . SVG Version: 6.00 Build 0)  -->
<!DOCTYPE svg PUBLIC "-//W3C//DTD SVG 1.1//EN" "http://www.w3.org/Graphics/SVG/1.1/DTD/svg11.dtd">
<svg version="1.1" xmlns="http://www.w3.org/2000/svg" xmlns:xlink="http://www.w3.org/1999/xlink" x="0px" y="0px"
	 width="656.385px" height="577.854px" viewBox="0 0 656.385 577.854" enable-background="new 0 0 656.385 577.854"
	 xml:space="preserve">
<g id="bottom-left">
	<path fill-rule="evenodd" clip-rule="evenodd" fill="#0093A6" d="M63.294,358.668c42.192,0,84.396,0,126.589,0
		c21.096,36.331,42.198,72.675,63.294,109.007c-21.292,36.723-42.589,73.456-63.88,110.179c-41.997,0-84.005,0-126.002,0
		C42.198,541.327,21.096,504.789,0,468.261C21.096,431.734,42.198,395.195,63.294,358.668z"/>
</g>
<g id="pc">
	<rect x="67.982" y="430.753" fill-rule="evenodd" clip-rule="evenodd" fill="#FFFFFF" width="86.151" height="58.605"/>
	<path fill-rule="evenodd" clip-rule="evenodd" fill="#FFFFFF" d="M67.982,491.703c0,0,0.203,0,0.586,0c7.553,0,85.565,0,85.565,0
		s0.22,7.692-8.791,7.619c-9.011-0.073-58.826,0.073-67.983,0S67.982,491.703,67.982,491.703z"/>
	<path fill-rule="evenodd" clip-rule="evenodd" fill="#FFFFFF" d="M103.146,501.667h15.824c0,0-0.342,5.15,1.806,6.549
		c3.381,1.783,6.49,2.12,9.329,2.242c5.128,0.22,4.103,4.103,4.103,4.103H87.909c0,0-1.245-4.029,4.688-4.103
		c2.178-0.03,7.239-0.941,9.009-2.563C103.509,506.398,103.146,501.667,103.146,501.667z"/>
	<path fill-rule="evenodd" clip-rule="evenodd" fill="#FFFFFF" d="M159.408,430.753h12.894v62.122c0,0,0.073,1.758,1.172,1.758
		c1.1,0,1.172-1.758,1.172-1.758v-62.122h12.894c0,0,0,76.041,0,78.532c0,2.49-1.905,5.347-5.275,5.274
		c-3.369-0.074-12.088,0-15.823,0c-4.688,0.072-7.106-2.784-7.033-5.202C159.481,506.94,159.408,430.753,159.408,430.753z"/>
	<circle fill-rule="evenodd" clip-rule="evenodd" fill="#0093A6" cx="173.473" cy="503.424" r="4.103"/>
</g>
<g id="top-left">
	<path fill-rule="evenodd" clip-rule="evenodd" fill="#0093A6" d="M63.294,120.728c42.192,0,84.396,0,126.589,0
		c21.096,36.333,42.198,72.675,63.294,109.007c-21.292,36.723-42.589,73.457-63.88,110.18c-41.997,0-84.005,0-126.002,0
		C42.198,303.386,21.096,266.849,0,230.321C21.096,193.794,42.198,157.255,63.294,120.728z"/>
</g>
<g id="wifi">
	<path fill-rule="evenodd" clip-rule="evenodd" fill="#FFFFFF" d="M126.003,270.759c4.208,0,7.619,3.279,7.619,7.326
		c0,4.046-3.411,7.326-7.619,7.326c-4.208,0-7.619-3.28-7.619-7.326C118.384,274.039,121.794,270.759,126.003,270.759z"/>
	<path fill-rule="evenodd" clip-rule="evenodd" fill="#FFFFFF" d="M126.589,247.317c9.545-0.037,17.736,3.883,22.856,9.963
		c-1.755,1.611-8.448,7.985-10.532,9.963c-3.255-3.369-6.729-5.128-12.324-5.274c-3.438,0,2.271,0-1.172,0
		c-5.604,0.146-9.047,1.905-12.307,5.274c-2.088-1.978-8.791-8.352-10.549-9.963c5.128-6.08,13.296-10,22.856-9.963
		C134.977,247.354,117.043,247.354,126.589,247.317z"/>
	<path fill-rule="evenodd" clip-rule="evenodd" fill="#FFFFFF" d="M126.589,221.53c8.864,0.037,27.984,3.187,40.438,17.582
		c-2.455,2.491-7.875,7.802-9.963,9.963c-12.893-11.575-23.772-12.894-30.475-12.894c-6.703,0,5.531,0-1.172,0
		s-17.582,1.318-30.475,12.894c-2.088-2.161-7.509-7.472-9.963-9.963c12.454-14.395,31.574-17.545,40.438-17.582
		C134.098,221.567,117.908,221.567,126.589,221.53z"/>
	<path fill-rule="evenodd" clip-rule="evenodd" fill="#FFFFFF" d="M126.589,196.33c16.483,0,39.131,5.14,58.605,24.615
		c-2.455,2.49-7.875,7.802-9.962,9.962c-12.894-12.893-30.268-19.926-48.643-19.926c-6.703,0,5.531,0-1.172,0
		c-17.594,0-35.859,7.143-48.643,19.926c-2.087-2.161-7.509-7.472-9.962-9.962c20.805-20.806,40.938-24.615,58.605-24.615
		C134.098,196.366,117.908,196.366,126.589,196.33z"/>
</g>
<g id="center-center">
	<path fill-rule="evenodd" clip-rule="evenodd" fill="#0093A6" d="M264.312,239.698c42.193,0,84.397,0,126.589,0
		c21.096,36.332,42.199,72.674,63.295,109.007c-21.291,36.722-42.59,73.456-63.881,110.179c-41.996,0-84.006,0-126.003,0
		c-21.096-36.527-42.198-73.065-63.294-109.594C222.114,312.763,243.216,276.225,264.312,239.698z"/>
</g>
<g id="house">
	<path fill-rule="evenodd" clip-rule="evenodd" fill="#FFFFFF" d="M328.193,294.202l-56.261,50.987c0,0,0,69.521,0,72.085
		c0,2.563,0.439,3.516,2.93,3.516c2.491,0,35.749,0,35.749,0s0-29.962,0-32.232c0-1.904,1.539-2.93,2.931-2.93
		c0.953,0,12.893,0,12.893,0h4.688c0,0,11.941,0,12.894,0c1.393,0,2.931,1.025,2.931,2.93c0,2.271,0,32.232,0,32.232
		s33.259,0,35.75,0c2.49,0,2.93-0.952,2.93-3.516c0-2.564,0-72.085,0-72.085l-56.261-50.987l-0.586-0.587L328.193,294.202z"/>
	<path fill-rule="evenodd" clip-rule="evenodd" fill="#FFFFFF" d="M329.366,266.071l80.875,72.085l-8.205,9.963l-72.67-65.053
		h-1.173l-72.671,65.053l-8.205-9.963l80.876-72.085H329.366z"/>
	<path fill-rule="evenodd" clip-rule="evenodd" fill="#FFFFFF" d="M271.345,276.62h21.099v11.722l-21.099,18.753V276.62z"/>
</g>
<g id="top-right">
	<path fill-rule="evenodd" clip-rule="evenodd" fill="#0093A6" d="M466.502,120.728c42.192,0,84.396,0,126.589,0
		c21.096,36.333,42.198,72.675,63.294,109.007c-21.291,36.723-42.589,73.457-63.88,110.18c-41.997,0-84.006,0-126.003,0
		c-21.096-36.528-42.198-73.066-63.294-109.593C424.304,193.794,445.407,157.255,466.502,120.728z"/>
</g>
<g id="tv">
	<path fill-rule="evenodd" clip-rule="evenodd" fill="#FFFFFF" d="M472.363,189.883H587.23v68.569h-50.986v7.032
		c0,0,36.519-0.476,37.508,4.103c-1.318,4.322-29.45,4.688-37.508,4.688c-7.436,0-2.967,0-11.722,0
		c-8.754,0-36.078-0.513-36.921-4.688c1.208-4.798,36.921-4.103,36.921-4.103v-7.032h-52.159V189.883z"/>
	<path fill-rule="evenodd" clip-rule="evenodd" fill="#0093A6" d="M477.051,193.985v60.364h106.077v-60.364H477.051z"/>
	<path fill-rule="evenodd" clip-rule="evenodd" fill="#FFFFFF" d="M479.983,196.33v55.675h100.216V196.33H479.983z"/>
</g>
<g id="bottom-right">
	<path fill-rule="evenodd" clip-rule="evenodd" fill="#0093A6" d="M466.502,358.668c42.192,0,84.396,0,126.589,0
		c21.096,36.331,42.198,72.675,63.294,109.007c-21.291,36.723-42.589,73.456-63.88,110.179c-41.997,0-84.006,0-126.003,0
		c-21.096-36.527-42.198-73.065-63.294-109.593C424.304,431.734,445.407,395.195,466.502,358.668z"/>
</g>
<g id="phone">
	<path fill-rule="evenodd" clip-rule="evenodd" fill="#FFFFFF" d="M530.969,412c0,0,19.377,0,21.685,0
		c3.846,0,7.618,4.028,7.618,7.619c0,4.396,0,93.622,0,96.699c0,3.076-3.04,7.618-7.032,7.618c-3.993,0-22.271,0-22.271,0h-1.172
		c0,0-19.45,0-23.442,0c-3.993,0-7.033-4.542-7.033-7.618c0-3.077,0-92.304,0-96.699c0-3.591,3.773-7.619,7.618-7.619
		c2.309,0,22.857,0,22.857,0H530.969z"/>
	<path fill-rule="evenodd" clip-rule="evenodd" fill="#0093A6" d="M506.355,430.753h46.885v75.016h-46.885V430.753z"/>
	<path fill-rule="evenodd" clip-rule="evenodd" fill="#0093A6" d="M530.969,422.548c2.931,0,5.274,0.165,5.274-1.172
		s-2.362-1.172-5.274-1.172s1.74,0-1.172,0s-5.861-0.165-5.861,1.172s2.931,1.172,5.861,1.172
		C532.727,422.548,528.039,422.548,530.969,422.548z"/>
	<path fill-rule="evenodd" clip-rule="evenodd" fill="#0093A6" d="M530.089,510.458c2.428,0,4.396,1.967,4.396,4.396
		c0,2.428-1.969,4.396-4.396,4.396c-2.427,0-4.395-1.968-4.395-4.396C525.695,512.424,527.663,510.458,530.089,510.458z"/>
</g>
<g id="top-center">
	<path fill-rule="evenodd" clip-rule="evenodd" fill="#0093A6" d="M264.312,0c42.193,0,84.397,0,126.589,0
		c21.096,36.332,42.199,72.675,63.295,109.007c-21.291,36.723-42.59,73.457-63.881,110.179c-41.996,0-84.006,0-126.003,0
		c-21.096-36.527-42.198-73.065-63.294-109.592C222.114,73.066,243.216,36.527,264.312,0z"/>
</g>
<g id="cloud">
	<path fill-rule="evenodd" clip-rule="evenodd" fill="#FFFFFF" d="M279.55,147.101c12.978,0,96.196,0,100.216,0
		c7.702,0,16.409-9.209,16.409-21.098c0-11.386,0,4.688,0-4.689c0-9.376-6.781-24.028-25.786-22.27
		c2.512-6.531,1.864-15.17,1.864-15.17C371.417,70,357.265,57.517,343.43,57.434c-9.083,0,5.777,0-2.931,0
		c-13.145,0-26.624,8.958-29.889,26.372c-3.265-2.679-5.442-6.446-15.823-6.446c-6.865,0.083-15.991,10.047-11.135,19.34
		c-13.313-1.423-25.201,11.302-25.201,24.028c0,10.131,0-3.851,0,2.344C258.452,131.947,266.071,147.101,279.55,147.101z"/>
</g>
</svg>
