<?xml version="1.0" encoding="utf-8"?>
<!-- Generator: Adobe Illustrator 16.0.0, SVG Export Plug-In . SVG Version: 6.00 Build 0)  -->
<!DOCTYPE svg PUBLIC "-//W3C//DTD SVG 1.1//EN" "http://www.w3.org/Graphics/SVG/1.1/DTD/svg11.dtd">
<svg version="1.1" id="Vrstva_1" xmlns="http://www.w3.org/2000/svg" xmlns:xlink="http://www.w3.org/1999/xlink" x="0px" y="0px"
	 width="2024px" height="2024px" viewBox="0 0 2024 2024" enable-background="new 0 0 2024 2024" xml:space="preserve">
<rect fill="#0097A7" width="2024" height="2024"/>
<polygon id="Uhelnik_-_okraj" fill-rule="evenodd" clip-rule="evenodd" fill="#FFFFFF" points="1314.201,1356.305 1116.086,1013.16 
	1314.201,670.012 1710.436,670.012 1908.553,1013.16 1710.436,1356.305 "/>
<path fill-rule="evenodd" clip-rule="evenodd" fill="#FFFFFF" d="M497.768,783.113c0,21.737-17.622,39.359-39.358,39.359H106.584
	c-21.737,0-39.359-17.623-39.359-39.359V294.051c0-21.738,17.622-39.359,39.359-39.359H458.41c21.737,0,39.358,17.622,39.358,39.359
	V783.113z"/>
<path fill="none" stroke="#FFFFFF" stroke-width="30" d="M282.496,1344.49c24.218,484.379,1232.432,549.793,1246.869,66.162"/>
<rect x="201.769" y="1137.307" fill="#FFFFFF" width="161.454" height="207.184"/>
<rect x="242.132" y="1121.16" fill="#FFFFFF" width="80.727" height="53.818"/>
<rect x="186.873" y="445.203" fill="#0097A7" width="191.248" height="245.415"/>
<rect x="234.684" y="426.077" fill="#0097A7" width="95.624" height="63.75"/>
<g id="Uhelnik_1_">
	<path fill-rule="evenodd" clip-rule="evenodd" fill="#FFFFFF" d="M1306.422,1421.742c-16.5,0-36.75-11.691-45-25.98
		l-205.896-356.621c-8.25-14.289-8.25-37.671,0-51.96l205.896-356.624c8.25-14.289,28.5-25.98,45-25.98h411.795
		c16.5,0,36.75,11.691,45,25.98l205.896,356.624c8.25,14.289,8.25,37.671,0,51.96l-205.896,356.621
		c-8.25,14.289-28.5,25.98-45,25.98H1306.422z"/>
</g>
</svg>
