<?xml version="1.0" encoding="utf-8"?>
<!-- Generator: Adobe Illustrator 16.0.0, SVG Export Plug-In . SVG Version: 6.00 Build 0)  -->
<!DOCTYPE svg PUBLIC "-//W3C//DTD SVG 1.1//EN" "http://www.w3.org/Graphics/SVG/1.1/DTD/svg11.dtd">
<svg version="1.1" id="Vrstva_1" xmlns="http://www.w3.org/2000/svg" xmlns:xlink="http://www.w3.org/1999/xlink" x="0px" y="0px"
	 width="2024px" height="2024px" viewBox="0 0 2024 2024" enable-background="new 0 0 2024 2024" xml:space="preserve">
<rect fill="#0098AC" width="2024" height="2024"/>
<polygon id="Uhelnik_-_okraj" fill-rule="evenodd" clip-rule="evenodd" fill="#FFFFFF" points="384.785,931.779 190.127,594.625 
	384.785,257.468 774.101,257.468 968.759,594.625 774.101,931.779 "/>
<g id="Uhelnik">
	<path fill-rule="evenodd" clip-rule="evenodd" fill="#FFFFFF" d="M373.652,997.771c-16.5,0-36.75-11.691-45-25.98L123.385,616.262
		c-8.25-14.289-8.25-37.672,0-51.961l205.268-355.532c8.25-14.289,28.5-25.98,45-25.98h410.534c16.5,0,36.75,11.691,45,25.98
		l205.268,355.532c8.25,14.289,8.25,37.672,0,51.961L829.187,971.79c-8.25,14.289-28.5,25.98-45,25.98H373.652z"/>
</g>
<path fill-rule="evenodd" clip-rule="evenodd" fill="#FFFFFF" d="M1885.256,1868.63c0,22.514-18.253,40.766-40.766,40.766h-634.748
	c-22.514,0-40.766-18.252-40.766-40.766V774.015c0-22.514,18.252-40.766,40.766-40.766h634.748
	c22.513,0,40.766,18.251,40.766,40.766V1868.63z"/>
<path fill-rule="evenodd" clip-rule="evenodd" fill="#0098AC" d="M1582.857,1811.848c0,30.785-24.954,55.741-55.742,55.741
	c-30.785,0-55.741-24.956-55.741-55.741s24.956-55.741,55.741-55.741C1557.903,1756.106,1582.857,1781.063,1582.857,1811.848z"/>
<path fill-rule="evenodd" clip-rule="evenodd" fill="#0098AC" d="M1796.067,1641.468c0,16.296-13.707,29.507-30.614,29.507h-476.676
	c-16.908,0-30.614-13.211-30.614-29.507V849.155c0-16.296,13.706-29.507,30.614-29.507h476.676c16.907,0,30.614,13.21,30.614,29.507
	V1641.468z"/>
<g id="elements">
	<path fill="#0098AC" d="M301.169,312.529h22.221v22.22h-22.221V312.529z M323.39,312.529h22.22v22.22h-22.22V312.529z
		 M345.609,312.529h22.22v22.22h-22.22V312.529z M367.829,312.529h22.221v22.22h-22.221V312.529z M390.05,312.529h22.22v22.22
		h-22.22V312.529z M412.27,312.529h22.22v22.22h-22.22V312.529z M434.489,312.529h22.22v22.22h-22.22V312.529z M523.37,312.529
		h22.22v22.22h-22.22V312.529z M567.81,312.529h22.22v22.22h-22.22V312.529z M612.25,312.529h22.22v22.22h-22.22V312.529z
		 M656.69,312.529h22.22v22.22h-22.22V312.529z M701.13,312.529h22.22v22.22h-22.22V312.529z M723.35,312.529h22.22v22.22h-22.22
		V312.529z M745.57,312.529h22.219v22.22H745.57V312.529z M767.79,312.529h22.221v22.22H767.79V312.529z M790.011,312.529h22.22
		v22.22h-22.22V312.529z M812.231,312.529h22.219v22.22h-22.219V312.529z M834.45,312.529h22.22v22.22h-22.22V312.529z
		 M301.169,334.749h22.221v22.22h-22.221V334.749z M434.489,334.749h22.22v22.22h-22.22V334.749z M478.93,334.749h22.22v22.22
		h-22.22V334.749z M523.37,334.749h22.22v22.22h-22.22V334.749z M612.25,334.749h22.22v22.22h-22.22V334.749z M634.469,334.749
		h22.221v22.22h-22.221V334.749z M656.69,334.749h22.22v22.22h-22.22V334.749z M701.13,334.749h22.22v22.22h-22.22V334.749z
		 M834.45,334.749h22.22v22.22h-22.22V334.749z M301.169,356.968h22.221v22.22h-22.221V356.968z M345.609,356.968h22.22v22.22
		h-22.22V356.968z M367.829,356.968h22.221v22.22h-22.221V356.968z M390.05,356.968h22.22v22.22h-22.22V356.968z M434.489,356.968
		h22.22v22.22h-22.22V356.968z M567.81,356.968h22.22v22.22h-22.22V356.968z M634.469,356.968h22.221v22.22h-22.221V356.968z
		 M656.69,356.968h22.22v22.22h-22.22V356.968z M701.13,356.968h22.22v22.22h-22.22V356.968z M745.57,356.968h22.219v22.22H745.57
		V356.968z M767.79,356.968h22.221v22.22H767.79V356.968z M790.011,356.968h22.22v22.22h-22.22V356.968z M834.45,356.968h22.22
		v22.22h-22.22V356.968z M301.169,379.188h22.221v22.221h-22.221V379.188z M345.609,379.188h22.22v22.221h-22.22V379.188z
		 M367.829,379.188h22.221v22.221h-22.221V379.188z M390.05,379.188h22.22v22.221h-22.22V379.188z M434.489,379.188h22.22v22.221
		h-22.22V379.188z M478.93,379.188h22.22v22.221h-22.22V379.188z M501.149,379.188h22.221v22.221h-22.221V379.188z M523.37,379.188
		h22.22v22.221h-22.22V379.188z M567.81,379.188h22.22v22.221h-22.22V379.188z M590.03,379.188h22.22v22.221h-22.22V379.188z
		 M612.25,379.188h22.22v22.221h-22.22V379.188z M634.469,379.188h22.221v22.221h-22.221V379.188z M656.69,379.188h22.22v22.221
		h-22.22V379.188z M701.13,379.188h22.22v22.221h-22.22V379.188z M745.57,379.188h22.219v22.221H745.57V379.188z M767.79,379.188
		h22.221v22.221H767.79V379.188z M790.011,379.188h22.22v22.221h-22.22V379.188z M834.45,379.188h22.22v22.221h-22.22V379.188z
		 M301.169,401.409h22.221v22.22h-22.221V401.409z M345.609,401.409h22.22v22.22h-22.22V401.409z M367.829,401.409h22.221v22.22
		h-22.221V401.409z M390.05,401.409h22.22v22.22h-22.22V401.409z M434.489,401.409h22.22v22.22h-22.22V401.409z M501.149,401.409
		h22.221v22.22h-22.221V401.409z M656.69,401.409h22.22v22.22h-22.22V401.409z M701.13,401.409h22.22v22.22h-22.22V401.409z
		 M745.57,401.409h22.219v22.22H745.57V401.409z M767.79,401.409h22.221v22.22H767.79V401.409z M790.011,401.409h22.22v22.22h-22.22
		V401.409z M834.45,401.409h22.22v22.22h-22.22V401.409z M301.169,423.629h22.221v22.22h-22.221V423.629z M434.489,423.629h22.22
		v22.22h-22.22V423.629z M478.93,423.629h22.22v22.22h-22.22V423.629z M501.149,423.629h22.221v22.22h-22.221V423.629z
		 M545.59,423.629h22.22v22.22h-22.22V423.629z M567.81,423.629h22.22v22.22h-22.22V423.629z M590.03,423.629h22.22v22.22h-22.22
		V423.629z M634.469,423.629h22.221v22.22h-22.221V423.629z M701.13,423.629h22.22v22.22h-22.22V423.629z M834.45,423.629h22.22
		v22.22h-22.22V423.629z M301.169,445.849h22.221v22.22h-22.221V445.849z M323.39,445.849h22.22v22.22h-22.22V445.849z
		 M345.609,445.849h22.22v22.22h-22.22V445.849z M367.829,445.849h22.221v22.22h-22.221V445.849z M390.05,445.849h22.22v22.22
		h-22.22V445.849z M412.27,445.849h22.22v22.22h-22.22V445.849z M434.489,445.849h22.22v22.22h-22.22V445.849z M478.93,445.849
		h22.22v22.22h-22.22V445.849z M523.37,445.849h22.22v22.22h-22.22V445.849z M567.81,445.849h22.22v22.22h-22.22V445.849z
		 M612.25,445.849h22.22v22.22h-22.22V445.849z M656.69,445.849h22.22v22.22h-22.22V445.849z M701.13,445.849h22.22v22.22h-22.22
		V445.849z M723.35,445.849h22.22v22.22h-22.22V445.849z M745.57,445.849h22.219v22.22H745.57V445.849z M767.79,445.849h22.221
		v22.22H767.79V445.849z M790.011,445.849h22.22v22.22h-22.22V445.849z M812.231,445.849h22.219v22.22h-22.219V445.849z
		 M834.45,445.849h22.22v22.22h-22.22V445.849z M501.149,468.069h22.221v22.22h-22.221V468.069z M523.37,468.069h22.22v22.22h-22.22
		V468.069z M545.59,468.069h22.22v22.22h-22.22V468.069z M656.69,468.069h22.22v22.22h-22.22V468.069z M301.169,490.289h22.221
		v22.22h-22.221V490.289z M323.39,490.289h22.22v22.22h-22.22V490.289z M345.609,490.289h22.22v22.22h-22.22V490.289z
		 M367.829,490.289h22.221v22.22h-22.221V490.289z M390.05,490.289h22.22v22.22h-22.22V490.289z M434.489,490.289h22.22v22.22
		h-22.22V490.289z M456.709,490.289h22.22v22.22h-22.22V490.289z M478.93,490.289h22.22v22.22h-22.22V490.289z M501.149,490.289
		h22.221v22.22h-22.221V490.289z M545.59,490.289h22.22v22.22h-22.22V490.289z M590.03,490.289h22.22v22.22h-22.22V490.289z
		 M612.25,490.289h22.22v22.22h-22.22V490.289z M634.469,490.289h22.221v22.22h-22.221V490.289z M656.69,490.289h22.22v22.22h-22.22
		V490.289z M678.91,490.289h22.22v22.22h-22.22V490.289z M723.35,490.289h22.22v22.22h-22.22V490.289z M767.79,490.289h22.221v22.22
		H767.79V490.289z M812.231,490.289h22.219v22.22h-22.219V490.289z M301.169,512.509h22.221v22.22h-22.221V512.509z M323.39,512.509
		h22.22v22.22h-22.22V512.509z M345.609,512.509h22.22v22.22h-22.22V512.509z M367.829,512.509h22.221v22.22h-22.221V512.509z
		 M523.37,512.509h22.22v22.22h-22.22V512.509z M567.81,512.509h22.22v22.22h-22.22V512.509z M612.25,512.509h22.22v22.22h-22.22
		V512.509z M656.69,512.509h22.22v22.22h-22.22V512.509z M678.91,512.509h22.22v22.22h-22.22V512.509z M723.35,512.509h22.22v22.22
		h-22.22V512.509z M812.231,512.509h22.219v22.22h-22.219V512.509z M301.169,534.729h22.221v22.22h-22.221V534.729z
		 M367.829,534.729h22.221v22.22h-22.221V534.729z M390.05,534.729h22.22v22.22h-22.22V534.729z M412.27,534.729h22.22v22.22h-22.22
		V534.729z M434.489,534.729h22.22v22.22h-22.22V534.729z M478.93,534.729h22.22v22.22h-22.22V534.729z M523.37,534.729h22.22v22.22
		h-22.22V534.729z M590.03,534.729h22.22v22.22h-22.22V534.729z M634.469,534.729h22.221v22.22h-22.221V534.729z M678.91,534.729
		h22.22v22.22h-22.22V534.729z M701.13,534.729h22.22v22.22h-22.22V534.729z M723.35,534.729h22.22v22.22h-22.22V534.729z
		 M745.57,534.729h22.219v22.22H745.57V534.729z M767.79,534.729h22.221v22.22H767.79V534.729z M812.231,534.729h22.219v22.22
		h-22.219V534.729z M834.45,534.729h22.22v22.22h-22.22V534.729z M323.39,556.95h22.22v22.22h-22.22V556.95z M345.609,556.95h22.22
		v22.22h-22.22V556.95z M456.709,556.95h22.22v22.22h-22.22V556.95z M478.93,556.95h22.22v22.22h-22.22V556.95z M567.81,556.95
		h22.22v22.22h-22.22V556.95z M656.69,556.95h22.22v22.22h-22.22V556.95z M678.91,556.95h22.22v22.22h-22.22V556.95z M723.35,556.95
		h22.22v22.22h-22.22V556.95z M834.45,556.95h22.22v22.22h-22.22V556.95z M301.169,579.169h22.221v22.22h-22.221V579.169z
		 M323.39,579.169h22.22v22.22h-22.22V579.169z M345.609,579.169h22.22v22.22h-22.22V579.169z M390.05,579.169h22.22v22.22h-22.22
		V579.169z M434.489,579.169h22.22v22.22h-22.22V579.169z M478.93,579.169h22.22v22.22h-22.22V579.169z M501.149,579.169h22.221
		v22.22h-22.221V579.169z M523.37,579.169h22.22v22.22h-22.22V579.169z M567.81,579.169h22.22v22.22h-22.22V579.169z
		 M590.03,579.169h22.22v22.22h-22.22V579.169z M701.13,579.169h22.22v22.22h-22.22V579.169z M723.35,579.169h22.22v22.22h-22.22
		V579.169z M745.57,579.169h22.219v22.22H745.57V579.169z M790.011,579.169h22.22v22.22h-22.22V579.169z M812.231,579.169h22.219
		v22.22h-22.219V579.169z M834.45,579.169h22.22v22.22h-22.22V579.169z M301.169,601.39h22.221v22.22h-22.221V601.39z
		 M345.609,601.39h22.22v22.22h-22.22V601.39z M367.829,601.39h22.221v22.22h-22.221V601.39z M412.27,601.39h22.22v22.22h-22.22
		V601.39z M478.93,601.39h22.22v22.22h-22.22V601.39z M501.149,601.39h22.221v22.22h-22.221V601.39z M590.03,601.39h22.22v22.22
		h-22.22V601.39z M723.35,601.39h22.22v22.22h-22.22V601.39z M767.79,601.39h22.221v22.22H767.79V601.39z M812.231,601.39h22.219
		v22.22h-22.219V601.39z M301.169,623.609h22.221v22.22h-22.221V623.609z M345.609,623.609h22.22v22.22h-22.22V623.609z
		 M367.829,623.609h22.221v22.22h-22.221V623.609z M412.27,623.609h22.22v22.22h-22.22V623.609z M434.489,623.609h22.22v22.22
		h-22.22V623.609z M456.709,623.609h22.22v22.22h-22.22V623.609z M501.149,623.609h22.221v22.22h-22.221V623.609z M523.37,623.609
		h22.22v22.22h-22.22V623.609z M545.59,623.609h22.22v22.22h-22.22V623.609z M567.81,623.609h22.22v22.22h-22.22V623.609z
		 M590.03,623.609h22.22v22.22h-22.22V623.609z M612.25,623.609h22.22v22.22h-22.22V623.609z M634.469,623.609h22.221v22.22h-22.221
		V623.609z M678.91,623.609h22.22v22.22h-22.22V623.609z M723.35,623.609h22.22v22.22h-22.22V623.609z M745.57,623.609h22.219v22.22
		H745.57V623.609z M767.79,623.609h22.221v22.22H767.79V623.609z M812.231,623.609h22.219v22.22h-22.219V623.609z M834.45,623.609
		h22.22v22.22h-22.22V623.609z M301.169,645.829h22.221v22.221h-22.221V645.829z M345.609,645.829h22.22v22.221h-22.22V645.829z
		 M390.05,645.829h22.22v22.221h-22.22V645.829z M501.149,645.829h22.221v22.221h-22.221V645.829z M545.59,645.829h22.22v22.221
		h-22.22V645.829z M634.469,645.829h22.221v22.221h-22.221V645.829z M656.69,645.829h22.22v22.221h-22.22V645.829z M723.35,645.829
		h22.22v22.221h-22.22V645.829z M767.79,645.829h22.221v22.221H767.79V645.829z M834.45,645.829h22.22v22.221h-22.22V645.829z
		 M301.169,668.05h22.221v22.22h-22.221V668.05z M345.609,668.05h22.22v22.22h-22.22V668.05z M412.27,668.05h22.22v22.22h-22.22
		V668.05z M434.489,668.05h22.22v22.22h-22.22V668.05z M456.709,668.05h22.22v22.22h-22.22V668.05z M478.93,668.05h22.22v22.22
		h-22.22V668.05z M523.37,668.05h22.22v22.22h-22.22V668.05z M545.59,668.05h22.22v22.22h-22.22V668.05z M590.03,668.05h22.22v22.22
		h-22.22V668.05z M612.25,668.05h22.22v22.22h-22.22V668.05z M634.469,668.05h22.221v22.22h-22.221V668.05z M656.69,668.05h22.22
		v22.22h-22.22V668.05z M678.91,668.05h22.22v22.22h-22.22V668.05z M701.13,668.05h22.22v22.22h-22.22V668.05z M723.35,668.05h22.22
		v22.22h-22.22V668.05z M745.57,668.05h22.219v22.22H745.57V668.05z M790.011,668.05h22.22v22.22h-22.22V668.05z M478.93,690.27
		h22.22v22.22h-22.22V690.27z M567.81,690.27h22.22v22.22h-22.22V690.27z M656.69,690.27h22.22v22.22h-22.22V690.27z M745.57,690.27
		h22.219v22.22H745.57V690.27z M767.79,690.27h22.221v22.22H767.79V690.27z M790.011,690.27h22.22v22.22h-22.22V690.27z
		 M301.169,712.489h22.221v22.221h-22.221V712.489z M323.39,712.489h22.22v22.221h-22.22V712.489z M345.609,712.489h22.22v22.221
		h-22.22V712.489z M367.829,712.489h22.221v22.221h-22.221V712.489z M390.05,712.489h22.22v22.221h-22.22V712.489z M412.27,712.489
		h22.22v22.221h-22.22V712.489z M434.489,712.489h22.22v22.221h-22.22V712.489z M478.93,712.489h22.22v22.221h-22.22V712.489z
		 M523.37,712.489h22.22v22.221h-22.22V712.489z M590.03,712.489h22.22v22.221h-22.22V712.489z M656.69,712.489h22.22v22.221h-22.22
		V712.489z M701.13,712.489h22.22v22.221h-22.22V712.489z M745.57,712.489h22.219v22.221H745.57V712.489z M767.79,712.489h22.221
		v22.221H767.79V712.489z M790.011,712.489h22.22v22.221h-22.22V712.489z M812.231,712.489h22.219v22.221h-22.219V712.489z
		 M834.45,712.489h22.22v22.221h-22.22V712.489z M301.169,734.71h22.221v22.22h-22.221V734.71z M434.489,734.71h22.22v22.22h-22.22
		V734.71z M523.37,734.71h22.22v22.22h-22.22V734.71z M567.81,734.71h22.22v22.22h-22.22V734.71z M612.25,734.71h22.22v22.22h-22.22
		V734.71z M656.69,734.71h22.22v22.22h-22.22V734.71z M745.57,734.71h22.219v22.22H745.57V734.71z M767.79,734.71h22.221v22.22
		H767.79V734.71z M812.231,734.71h22.219v22.22h-22.219V734.71z M301.169,756.93h22.221v22.22h-22.221V756.93z M345.609,756.93
		h22.22v22.22h-22.22V756.93z M367.829,756.93h22.221v22.22h-22.221V756.93z M390.05,756.93h22.22v22.22h-22.22V756.93z
		 M434.489,756.93h22.22v22.22h-22.22V756.93z M478.93,756.93h22.22v22.22h-22.22V756.93z M523.37,756.93h22.22v22.22h-22.22V756.93
		z M567.81,756.93h22.22v22.22h-22.22V756.93z M590.03,756.93h22.22v22.22h-22.22V756.93z M612.25,756.93h22.22v22.22h-22.22V756.93
		z M634.469,756.93h22.221v22.22h-22.221V756.93z M656.69,756.93h22.22v22.22h-22.22V756.93z M678.91,756.93h22.22v22.22h-22.22
		V756.93z M701.13,756.93h22.22v22.22h-22.22V756.93z M723.35,756.93h22.22v22.22h-22.22V756.93z M745.57,756.93h22.219v22.22
		H745.57V756.93z M767.79,756.93h22.221v22.22H767.79V756.93z M790.011,756.93h22.22v22.22h-22.22V756.93z M812.231,756.93h22.219
		v22.22h-22.219V756.93z M834.45,756.93h22.22v22.22h-22.22V756.93z M301.169,779.15h22.221v22.22h-22.221V779.15z M345.609,779.15
		h22.22v22.22h-22.22V779.15z M367.829,779.15h22.221v22.22h-22.221V779.15z M390.05,779.15h22.22v22.22h-22.22V779.15z
		 M434.489,779.15h22.22v22.22h-22.22V779.15z M478.93,779.15h22.22v22.22h-22.22V779.15z M501.149,779.15h22.221v22.22h-22.221
		V779.15z M590.03,779.15h22.22v22.22h-22.22V779.15z M612.25,779.15h22.22v22.22h-22.22V779.15z M678.91,779.15h22.22v22.22h-22.22
		V779.15z M701.13,779.15h22.22v22.22h-22.22V779.15z M723.35,779.15h22.22v22.22h-22.22V779.15z M745.57,779.15h22.219v22.22
		H745.57V779.15z M790.011,779.15h22.22v22.22h-22.22V779.15z M812.231,779.15h22.219v22.22h-22.219V779.15z M834.45,779.15h22.22
		v22.22h-22.22V779.15z M301.169,801.37h22.221v22.22h-22.221V801.37z M345.609,801.37h22.22v22.22h-22.22V801.37z M367.829,801.37
		h22.221v22.22h-22.221V801.37z M390.05,801.37h22.22v22.22h-22.22V801.37z M434.489,801.37h22.22v22.22h-22.22V801.37z
		 M478.93,801.37h22.22v22.22h-22.22V801.37z M501.149,801.37h22.221v22.22h-22.221V801.37z M523.37,801.37h22.22v22.22h-22.22
		V801.37z M545.59,801.37h22.22v22.22h-22.22V801.37z M567.81,801.37h22.22v22.22h-22.22V801.37z M590.03,801.37h22.22v22.22h-22.22
		V801.37z M634.469,801.37h22.221v22.22h-22.221V801.37z M656.69,801.37h22.22v22.22h-22.22V801.37z M723.35,801.37h22.22v22.22
		h-22.22V801.37z M790.011,801.37h22.22v22.22h-22.22V801.37z M834.45,801.37h22.22v22.22h-22.22V801.37z M301.169,823.59h22.221
		v22.22h-22.221V823.59z M434.489,823.59h22.22v22.22h-22.22V823.59z M478.93,823.59h22.22v22.22h-22.22V823.59z M501.149,823.59
		h22.221v22.22h-22.221V823.59z M545.59,823.59h22.22v22.22h-22.22V823.59z M634.469,823.59h22.221v22.22h-22.221V823.59z
		 M656.69,823.59h22.22v22.22h-22.22V823.59z M678.91,823.59h22.22v22.22h-22.22V823.59z M701.13,823.59h22.22v22.22h-22.22V823.59z
		 M723.35,823.59h22.22v22.22h-22.22V823.59z M745.57,823.59h22.219v22.22H745.57V823.59z M767.79,823.59h22.221v22.22H767.79
		V823.59z M834.45,823.59h22.22v22.22h-22.22V823.59z M301.169,845.81h22.221v22.221h-22.221V845.81z M323.39,845.81h22.22v22.221
		h-22.22V845.81z M345.609,845.81h22.22v22.221h-22.22V845.81z M367.829,845.81h22.221v22.221h-22.221V845.81z M390.05,845.81h22.22
		v22.221h-22.22V845.81z M412.27,845.81h22.22v22.221h-22.22V845.81z M434.489,845.81h22.22v22.221h-22.22V845.81z M478.93,845.81
		h22.22v22.221h-22.22V845.81z M501.149,845.81h22.221v22.221h-22.221V845.81z M523.37,845.81h22.22v22.221h-22.22V845.81z
		 M545.59,845.81h22.22v22.221h-22.22V845.81z M567.81,845.81h22.22v22.221h-22.22V845.81z M723.35,845.81h22.22v22.221h-22.22
		V845.81z M745.57,845.81h22.219v22.221H745.57V845.81z M767.79,845.81h22.221v22.221H767.79V845.81z M790.011,845.81h22.22v22.221
		h-22.22V845.81z M812.231,845.81h22.219v22.221h-22.219V845.81z M834.45,845.81h22.22v22.221h-22.22V845.81z"/>
</g>
<rect x="1285.837" y="977.034" fill="#0098AC" width="482.558" height="482.558"/>
<g id="elements_1_">
	<path fill="#FFFFFE" d="M1303.709,994.907h17.873v17.873h-17.873V994.907z M1321.582,994.907h17.872v17.873h-17.872V994.907z
		 M1339.454,994.907h17.873v17.873h-17.873V994.907z M1357.327,994.907h17.872v17.873h-17.872V994.907z M1375.199,994.907h17.873
		v17.873h-17.873V994.907z M1393.072,994.907h17.872v17.873h-17.872V994.907z M1410.944,994.907h17.873v17.873h-17.873V994.907z
		 M1482.435,994.907h17.872v17.873h-17.872V994.907z M1518.18,994.907h17.872v17.873h-17.872V994.907z M1553.925,994.907h17.872
		v17.873h-17.872V994.907z M1589.67,994.907h17.872v17.873h-17.872V994.907z M1625.414,994.907h17.873v17.873h-17.873V994.907z
		 M1643.287,994.907h17.872v17.873h-17.872V994.907z M1661.159,994.907h17.873v17.873h-17.873V994.907z M1679.032,994.907h17.872
		v17.873h-17.872V994.907z M1696.904,994.907h17.873v17.873h-17.873V994.907z M1714.777,994.907h17.872v17.873h-17.872V994.907z
		 M1732.649,994.907h17.873v17.873h-17.873V994.907z M1303.709,1012.779h17.873v17.873h-17.873V1012.779z M1410.944,1012.779h17.873
		v17.873h-17.873V1012.779z M1446.689,1012.779h17.873v17.873h-17.873V1012.779z M1482.435,1012.779h17.872v17.873h-17.872V1012.779
		z M1553.925,1012.779h17.872v17.873h-17.872V1012.779z M1571.797,1012.779h17.873v17.873h-17.873V1012.779z M1589.67,1012.779
		h17.872v17.873h-17.872V1012.779z M1625.414,1012.779h17.873v17.873h-17.873V1012.779z M1732.649,1012.779h17.873v17.873h-17.873
		V1012.779z M1303.709,1030.652h17.873v17.872h-17.873V1030.652z M1339.454,1030.652h17.873v17.872h-17.873V1030.652z
		 M1357.327,1030.652h17.872v17.872h-17.872V1030.652z M1375.199,1030.652h17.873v17.872h-17.873V1030.652z M1410.944,1030.652
		h17.873v17.872h-17.873V1030.652z M1518.18,1030.652h17.872v17.872h-17.872V1030.652z M1571.797,1030.652h17.873v17.872h-17.873
		V1030.652z M1589.67,1030.652h17.872v17.872h-17.872V1030.652z M1625.414,1030.652h17.873v17.872h-17.873V1030.652z
		 M1661.159,1030.652h17.873v17.872h-17.873V1030.652z M1679.032,1030.652h17.872v17.872h-17.872V1030.652z M1696.904,1030.652
		h17.873v17.872h-17.873V1030.652z M1732.649,1030.652h17.873v17.872h-17.873V1030.652z M1303.709,1048.524h17.873v17.872h-17.873
		V1048.524z M1339.454,1048.524h17.873v17.872h-17.873V1048.524z M1357.327,1048.524h17.872v17.872h-17.872V1048.524z
		 M1375.199,1048.524h17.873v17.872h-17.873V1048.524z M1410.944,1048.524h17.873v17.872h-17.873V1048.524z M1446.689,1048.524
		h17.873v17.872h-17.873V1048.524z M1464.563,1048.524h17.872v17.872h-17.872V1048.524z M1482.435,1048.524h17.872v17.872h-17.872
		V1048.524z M1518.18,1048.524h17.872v17.872h-17.872V1048.524z M1536.052,1048.524h17.873v17.872h-17.873V1048.524z
		 M1553.925,1048.524h17.872v17.872h-17.872V1048.524z M1571.797,1048.524h17.873v17.872h-17.873V1048.524z M1589.67,1048.524
		h17.872v17.872h-17.872V1048.524z M1625.414,1048.524h17.873v17.872h-17.873V1048.524z M1661.159,1048.524h17.873v17.872h-17.873
		V1048.524z M1679.032,1048.524h17.872v17.872h-17.872V1048.524z M1696.904,1048.524h17.873v17.872h-17.873V1048.524z
		 M1732.649,1048.524h17.873v17.872h-17.873V1048.524z M1303.709,1066.396h17.873v17.873h-17.873V1066.396z M1339.454,1066.396
		h17.873v17.873h-17.873V1066.396z M1357.327,1066.396h17.872v17.873h-17.872V1066.396z M1375.199,1066.396h17.873v17.873h-17.873
		V1066.396z M1410.944,1066.396h17.873v17.873h-17.873V1066.396z M1464.563,1066.396h17.872v17.873h-17.872V1066.396z
		 M1589.67,1066.396h17.872v17.873h-17.872V1066.396z M1625.414,1066.396h17.873v17.873h-17.873V1066.396z M1661.159,1066.396
		h17.873v17.873h-17.873V1066.396z M1679.032,1066.396h17.872v17.873h-17.872V1066.396z M1696.904,1066.396h17.873v17.873h-17.873
		V1066.396z M1732.649,1066.396h17.873v17.873h-17.873V1066.396z M1303.709,1084.27h17.873v17.872h-17.873V1084.27z
		 M1410.944,1084.27h17.873v17.872h-17.873V1084.27z M1446.689,1084.27h17.873v17.872h-17.873V1084.27z M1464.563,1084.27h17.872
		v17.872h-17.872V1084.27z M1500.307,1084.27h17.873v17.872h-17.873V1084.27z M1518.18,1084.27h17.872v17.872h-17.872V1084.27z
		 M1536.052,1084.27h17.873v17.872h-17.873V1084.27z M1571.797,1084.27h17.873v17.872h-17.873V1084.27z M1625.414,1084.27h17.873
		v17.872h-17.873V1084.27z M1732.649,1084.27h17.873v17.872h-17.873V1084.27z M1303.709,1102.142h17.873v17.873h-17.873V1102.142z
		 M1321.582,1102.142h17.872v17.873h-17.872V1102.142z M1339.454,1102.142h17.873v17.873h-17.873V1102.142z M1357.327,1102.142
		h17.872v17.873h-17.872V1102.142z M1375.199,1102.142h17.873v17.873h-17.873V1102.142z M1393.072,1102.142h17.872v17.873h-17.872
		V1102.142z M1410.944,1102.142h17.873v17.873h-17.873V1102.142z M1446.689,1102.142h17.873v17.873h-17.873V1102.142z
		 M1482.435,1102.142h17.872v17.873h-17.872V1102.142z M1518.18,1102.142h17.872v17.873h-17.872V1102.142z M1553.925,1102.142
		h17.872v17.873h-17.872V1102.142z M1589.67,1102.142h17.872v17.873h-17.872V1102.142z M1625.414,1102.142h17.873v17.873h-17.873
		V1102.142z M1643.287,1102.142h17.872v17.873h-17.872V1102.142z M1661.159,1102.142h17.873v17.873h-17.873V1102.142z
		 M1679.032,1102.142h17.872v17.873h-17.872V1102.142z M1696.904,1102.142h17.873v17.873h-17.873V1102.142z M1714.777,1102.142
		h17.872v17.873h-17.872V1102.142z M1732.649,1102.142h17.873v17.873h-17.873V1102.142z M1464.563,1120.015h17.872v17.872h-17.872
		V1120.015z M1482.435,1120.015h17.872v17.872h-17.872V1120.015z M1500.307,1120.015h17.873v17.872h-17.873V1120.015z
		 M1589.67,1120.015h17.872v17.872h-17.872V1120.015z M1303.709,1137.887h17.873v17.872h-17.873V1137.887z M1321.582,1137.887
		h17.872v17.872h-17.872V1137.887z M1339.454,1137.887h17.873v17.872h-17.873V1137.887z M1357.327,1137.887h17.872v17.872h-17.872
		V1137.887z M1375.199,1137.887h17.873v17.872h-17.873V1137.887z M1410.944,1137.887h17.873v17.872h-17.873V1137.887z
		 M1428.817,1137.887h17.872v17.872h-17.872V1137.887z M1446.689,1137.887h17.873v17.872h-17.873V1137.887z M1464.563,1137.887
		h17.872v17.872h-17.872V1137.887z M1500.307,1137.887h17.873v17.872h-17.873V1137.887z M1536.052,1137.887h17.873v17.872h-17.873
		V1137.887z M1553.925,1137.887h17.872v17.872h-17.872V1137.887z M1571.797,1137.887h17.873v17.872h-17.873V1137.887z
		 M1589.67,1137.887h17.872v17.872h-17.872V1137.887z M1607.542,1137.887h17.872v17.872h-17.872V1137.887z M1643.287,1137.887
		h17.872v17.872h-17.872V1137.887z M1679.032,1137.887h17.872v17.872h-17.872V1137.887z M1714.777,1137.887h17.872v17.872h-17.872
		V1137.887z M1303.709,1155.759h17.873v17.873h-17.873V1155.759z M1321.582,1155.759h17.872v17.873h-17.872V1155.759z
		 M1339.454,1155.759h17.873v17.873h-17.873V1155.759z M1357.327,1155.759h17.872v17.873h-17.872V1155.759z M1482.435,1155.759
		h17.872v17.873h-17.872V1155.759z M1518.18,1155.759h17.872v17.873h-17.872V1155.759z M1553.925,1155.759h17.872v17.873h-17.872
		V1155.759z M1589.67,1155.759h17.872v17.873h-17.872V1155.759z M1607.542,1155.759h17.872v17.873h-17.872V1155.759z
		 M1643.287,1155.759h17.872v17.873h-17.872V1155.759z M1714.777,1155.759h17.872v17.873h-17.872V1155.759z M1303.709,1173.632
		h17.873v17.872h-17.873V1173.632z M1357.327,1173.632h17.872v17.872h-17.872V1173.632z M1375.199,1173.632h17.873v17.872h-17.873
		V1173.632z M1393.072,1173.632h17.872v17.872h-17.872V1173.632z M1410.944,1173.632h17.873v17.872h-17.873V1173.632z
		 M1446.689,1173.632h17.873v17.872h-17.873V1173.632z M1482.435,1173.632h17.872v17.872h-17.872V1173.632z M1536.052,1173.632
		h17.873v17.872h-17.873V1173.632z M1571.797,1173.632h17.873v17.872h-17.873V1173.632z M1607.542,1173.632h17.872v17.872h-17.872
		V1173.632z M1625.414,1173.632h17.873v17.872h-17.873V1173.632z M1643.287,1173.632h17.872v17.872h-17.872V1173.632z
		 M1661.159,1173.632h17.873v17.872h-17.873V1173.632z M1679.032,1173.632h17.872v17.872h-17.872V1173.632z M1714.777,1173.632
		h17.872v17.872h-17.872V1173.632z M1732.649,1173.632h17.873v17.872h-17.873V1173.632z M1321.582,1191.504h17.872v17.873h-17.872
		V1191.504z M1339.454,1191.504h17.873v17.873h-17.873V1191.504z M1428.817,1191.504h17.872v17.873h-17.872V1191.504z
		 M1446.689,1191.504h17.873v17.873h-17.873V1191.504z M1518.18,1191.504h17.872v17.873h-17.872V1191.504z M1589.67,1191.504h17.872
		v17.873h-17.872V1191.504z M1607.542,1191.504h17.872v17.873h-17.872V1191.504z M1643.287,1191.504h17.872v17.873h-17.872V1191.504
		z M1732.649,1191.504h17.873v17.873h-17.873V1191.504z M1303.709,1209.377h17.873v17.872h-17.873V1209.377z M1321.582,1209.377
		h17.872v17.872h-17.872V1209.377z M1339.454,1209.377h17.873v17.872h-17.873V1209.377z M1375.199,1209.377h17.873v17.872h-17.873
		V1209.377z M1410.944,1209.377h17.873v17.872h-17.873V1209.377z M1446.689,1209.377h17.873v17.872h-17.873V1209.377z
		 M1464.563,1209.377h17.872v17.872h-17.872V1209.377z M1482.435,1209.377h17.872v17.872h-17.872V1209.377z M1518.18,1209.377
		h17.872v17.872h-17.872V1209.377z M1536.052,1209.377h17.873v17.872h-17.873V1209.377z M1625.414,1209.377h17.873v17.872h-17.873
		V1209.377z M1643.287,1209.377h17.872v17.872h-17.872V1209.377z M1661.159,1209.377h17.873v17.872h-17.873V1209.377z
		 M1696.904,1209.377h17.873v17.872h-17.873V1209.377z M1714.777,1209.377h17.872v17.872h-17.872V1209.377z M1732.649,1209.377
		h17.873v17.872h-17.873V1209.377z M1303.709,1227.249h17.873v17.873h-17.873V1227.249z M1339.454,1227.249h17.873v17.873h-17.873
		V1227.249z M1357.327,1227.249h17.872v17.873h-17.872V1227.249z M1393.072,1227.249h17.872v17.873h-17.872V1227.249z
		 M1446.689,1227.249h17.873v17.873h-17.873V1227.249z M1464.563,1227.249h17.872v17.873h-17.872V1227.249z M1536.052,1227.249
		h17.873v17.873h-17.873V1227.249z M1643.287,1227.249h17.872v17.873h-17.872V1227.249z M1679.032,1227.249h17.872v17.873h-17.872
		V1227.249z M1714.777,1227.249h17.872v17.873h-17.872V1227.249z M1303.709,1245.122h17.873v17.872h-17.873V1245.122z
		 M1339.454,1245.122h17.873v17.872h-17.873V1245.122z M1357.327,1245.122h17.872v17.872h-17.872V1245.122z M1393.072,1245.122
		h17.872v17.872h-17.872V1245.122z M1410.944,1245.122h17.873v17.872h-17.873V1245.122z M1428.817,1245.122h17.872v17.872h-17.872
		V1245.122z M1464.563,1245.122h17.872v17.872h-17.872V1245.122z M1482.435,1245.122h17.872v17.872h-17.872V1245.122z
		 M1500.307,1245.122h17.873v17.872h-17.873V1245.122z M1518.18,1245.122h17.872v17.872h-17.872V1245.122z M1536.052,1245.122
		h17.873v17.872h-17.873V1245.122z M1553.925,1245.122h17.872v17.872h-17.872V1245.122z M1571.797,1245.122h17.873v17.872h-17.873
		V1245.122z M1607.542,1245.122h17.872v17.872h-17.872V1245.122z M1643.287,1245.122h17.872v17.872h-17.872V1245.122z
		 M1661.159,1245.122h17.873v17.872h-17.873V1245.122z M1679.032,1245.122h17.872v17.872h-17.872V1245.122z M1714.777,1245.122
		h17.872v17.872h-17.872V1245.122z M1732.649,1245.122h17.873v17.872h-17.873V1245.122z M1303.709,1262.994h17.873v17.873h-17.873
		V1262.994z M1339.454,1262.994h17.873v17.873h-17.873V1262.994z M1375.199,1262.994h17.873v17.873h-17.873V1262.994z
		 M1464.563,1262.994h17.872v17.873h-17.872V1262.994z M1500.307,1262.994h17.873v17.873h-17.873V1262.994z M1571.797,1262.994
		h17.873v17.873h-17.873V1262.994z M1589.67,1262.994h17.872v17.873h-17.872V1262.994z M1643.287,1262.994h17.872v17.873h-17.872
		V1262.994z M1679.032,1262.994h17.872v17.873h-17.872V1262.994z M1732.649,1262.994h17.873v17.873h-17.873V1262.994z
		 M1303.709,1280.867h17.873v17.872h-17.873V1280.867z M1339.454,1280.867h17.873v17.872h-17.873V1280.867z M1393.072,1280.867
		h17.872v17.872h-17.872V1280.867z M1410.944,1280.867h17.873v17.872h-17.873V1280.867z M1428.817,1280.867h17.872v17.872h-17.872
		V1280.867z M1446.689,1280.867h17.873v17.872h-17.873V1280.867z M1482.435,1280.867h17.872v17.872h-17.872V1280.867z
		 M1500.307,1280.867h17.873v17.872h-17.873V1280.867z M1536.052,1280.867h17.873v17.872h-17.873V1280.867z M1553.925,1280.867
		h17.872v17.872h-17.872V1280.867z M1571.797,1280.867h17.873v17.872h-17.873V1280.867z M1589.67,1280.867h17.872v17.872h-17.872
		V1280.867z M1607.542,1280.867h17.872v17.872h-17.872V1280.867z M1625.414,1280.867h17.873v17.872h-17.873V1280.867z
		 M1643.287,1280.867h17.872v17.872h-17.872V1280.867z M1661.159,1280.867h17.873v17.872h-17.873V1280.867z M1696.904,1280.867
		h17.873v17.872h-17.873V1280.867z M1446.689,1298.739h17.873v17.872h-17.873V1298.739z M1518.18,1298.739h17.872v17.872h-17.872
		V1298.739z M1589.67,1298.739h17.872v17.872h-17.872V1298.739z M1661.159,1298.739h17.873v17.872h-17.873V1298.739z
		 M1679.032,1298.739h17.872v17.872h-17.872V1298.739z M1696.904,1298.739h17.873v17.872h-17.873V1298.739z M1303.709,1316.611
		h17.873v17.873h-17.873V1316.611z M1321.582,1316.611h17.872v17.873h-17.872V1316.611z M1339.454,1316.611h17.873v17.873h-17.873
		V1316.611z M1357.327,1316.611h17.872v17.873h-17.872V1316.611z M1375.199,1316.611h17.873v17.873h-17.873V1316.611z
		 M1393.072,1316.611h17.872v17.873h-17.872V1316.611z M1410.944,1316.611h17.873v17.873h-17.873V1316.611z M1446.689,1316.611
		h17.873v17.873h-17.873V1316.611z M1482.435,1316.611h17.872v17.873h-17.872V1316.611z M1536.052,1316.611h17.873v17.873h-17.873
		V1316.611z M1589.67,1316.611h17.872v17.873h-17.872V1316.611z M1625.414,1316.611h17.873v17.873h-17.873V1316.611z
		 M1661.159,1316.611h17.873v17.873h-17.873V1316.611z M1679.032,1316.611h17.872v17.873h-17.872V1316.611z M1696.904,1316.611
		h17.873v17.873h-17.873V1316.611z M1714.777,1316.611h17.872v17.873h-17.872V1316.611z M1732.649,1316.611h17.873v17.873h-17.873
		V1316.611z M1303.709,1334.484h17.873v17.872h-17.873V1334.484z M1410.944,1334.484h17.873v17.872h-17.873V1334.484z
		 M1482.435,1334.484h17.872v17.872h-17.872V1334.484z M1518.18,1334.484h17.872v17.872h-17.872V1334.484z M1553.925,1334.484
		h17.872v17.872h-17.872V1334.484z M1589.67,1334.484h17.872v17.872h-17.872V1334.484z M1661.159,1334.484h17.873v17.872h-17.873
		V1334.484z M1679.032,1334.484h17.872v17.872h-17.872V1334.484z M1714.777,1334.484h17.872v17.872h-17.872V1334.484z
		 M1303.709,1352.356h17.873v17.873h-17.873V1352.356z M1339.454,1352.356h17.873v17.873h-17.873V1352.356z M1357.327,1352.356
		h17.872v17.873h-17.872V1352.356z M1375.199,1352.356h17.873v17.873h-17.873V1352.356z M1410.944,1352.356h17.873v17.873h-17.873
		V1352.356z M1446.689,1352.356h17.873v17.873h-17.873V1352.356z M1482.435,1352.356h17.872v17.873h-17.872V1352.356z
		 M1518.18,1352.356h17.872v17.873h-17.872V1352.356z M1536.052,1352.356h17.873v17.873h-17.873V1352.356z M1553.925,1352.356
		h17.872v17.873h-17.872V1352.356z M1571.797,1352.356h17.873v17.873h-17.873V1352.356z M1589.67,1352.356h17.872v17.873h-17.872
		V1352.356z M1607.542,1352.356h17.872v17.873h-17.872V1352.356z M1625.414,1352.356h17.873v17.873h-17.873V1352.356z
		 M1643.287,1352.356h17.872v17.873h-17.872V1352.356z M1661.159,1352.356h17.873v17.873h-17.873V1352.356z M1679.032,1352.356
		h17.872v17.873h-17.872V1352.356z M1696.904,1352.356h17.873v17.873h-17.873V1352.356z M1714.777,1352.356h17.872v17.873h-17.872
		V1352.356z M1732.649,1352.356h17.873v17.873h-17.873V1352.356z M1303.709,1370.229h17.873v17.872h-17.873V1370.229z
		 M1339.454,1370.229h17.873v17.872h-17.873V1370.229z M1357.327,1370.229h17.872v17.872h-17.872V1370.229z M1375.199,1370.229
		h17.873v17.872h-17.873V1370.229z M1410.944,1370.229h17.873v17.872h-17.873V1370.229z M1446.689,1370.229h17.873v17.872h-17.873
		V1370.229z M1464.563,1370.229h17.872v17.872h-17.872V1370.229z M1536.052,1370.229h17.873v17.872h-17.873V1370.229z
		 M1553.925,1370.229h17.872v17.872h-17.872V1370.229z M1607.542,1370.229h17.872v17.872h-17.872V1370.229z M1625.414,1370.229
		h17.873v17.872h-17.873V1370.229z M1643.287,1370.229h17.872v17.872h-17.872V1370.229z M1661.159,1370.229h17.873v17.872h-17.873
		V1370.229z M1696.904,1370.229h17.873v17.872h-17.873V1370.229z M1714.777,1370.229h17.872v17.872h-17.872V1370.229z
		 M1732.649,1370.229h17.873v17.872h-17.873V1370.229z M1303.709,1388.102h17.873v17.873h-17.873V1388.102z M1339.454,1388.102
		h17.873v17.873h-17.873V1388.102z M1357.327,1388.102h17.872v17.873h-17.872V1388.102z M1375.199,1388.102h17.873v17.873h-17.873
		V1388.102z M1410.944,1388.102h17.873v17.873h-17.873V1388.102z M1446.689,1388.102h17.873v17.873h-17.873V1388.102z
		 M1464.563,1388.102h17.872v17.873h-17.872V1388.102z M1482.435,1388.102h17.872v17.873h-17.872V1388.102z M1500.307,1388.102
		h17.873v17.873h-17.873V1388.102z M1518.18,1388.102h17.872v17.873h-17.872V1388.102z M1536.052,1388.102h17.873v17.873h-17.873
		V1388.102z M1571.797,1388.102h17.873v17.873h-17.873V1388.102z M1589.67,1388.102h17.872v17.873h-17.872V1388.102z
		 M1643.287,1388.102h17.872v17.873h-17.872V1388.102z M1696.904,1388.102h17.873v17.873h-17.873V1388.102z M1732.649,1388.102
		h17.873v17.873h-17.873V1388.102z M1303.709,1405.975h17.873v17.872h-17.873V1405.975z M1410.944,1405.975h17.873v17.872h-17.873
		V1405.975z M1446.689,1405.975h17.873v17.872h-17.873V1405.975z M1464.563,1405.975h17.872v17.872h-17.872V1405.975z
		 M1500.307,1405.975h17.873v17.872h-17.873V1405.975z M1571.797,1405.975h17.873v17.872h-17.873V1405.975z M1589.67,1405.975
		h17.872v17.872h-17.872V1405.975z M1607.542,1405.975h17.872v17.872h-17.872V1405.975z M1625.414,1405.975h17.873v17.872h-17.873
		V1405.975z M1643.287,1405.975h17.872v17.872h-17.872V1405.975z M1661.159,1405.975h17.873v17.872h-17.873V1405.975z
		 M1679.032,1405.975h17.872v17.872h-17.872V1405.975z M1732.649,1405.975h17.873v17.872h-17.873V1405.975z M1303.709,1423.847
		h17.873v17.873h-17.873V1423.847z M1321.582,1423.847h17.872v17.873h-17.872V1423.847z M1339.454,1423.847h17.873v17.873h-17.873
		V1423.847z M1357.327,1423.847h17.872v17.873h-17.872V1423.847z M1375.199,1423.847h17.873v17.873h-17.873V1423.847z
		 M1393.072,1423.847h17.872v17.873h-17.872V1423.847z M1410.944,1423.847h17.873v17.873h-17.873V1423.847z M1446.689,1423.847
		h17.873v17.873h-17.873V1423.847z M1464.563,1423.847h17.872v17.873h-17.872V1423.847z M1482.435,1423.847h17.872v17.873h-17.872
		V1423.847z M1500.307,1423.847h17.873v17.873h-17.873V1423.847z M1518.18,1423.847h17.872v17.873h-17.872V1423.847z
		 M1643.287,1423.847h17.872v17.873h-17.872V1423.847z M1661.159,1423.847h17.873v17.873h-17.873V1423.847z M1679.032,1423.847
		h17.872v17.873h-17.872V1423.847z M1696.904,1423.847h17.873v17.873h-17.873V1423.847z M1714.777,1423.847h17.872v17.873h-17.872
		V1423.847z M1732.649,1423.847h17.873v17.873h-17.873V1423.847z"/>
</g>
</svg>
