<?xml version="1.0" encoding="utf-8"?>
<!-- Generator: Adobe Illustrator 16.0.0, SVG Export Plug-In . SVG Version: 6.00 Build 0)  -->
<!DOCTYPE svg PUBLIC "-//W3C//DTD SVG 1.1//EN" "http://www.w3.org/Graphics/SVG/1.1/DTD/svg11.dtd">
<svg version="1.1" xmlns="http://www.w3.org/2000/svg" xmlns:xlink="http://www.w3.org/1999/xlink" x="0px" y="0px" width="48px"
	 height="48px" viewBox="0 0 48 48" enable-background="new 0 0 48 48" xml:space="preserve">
<g id="Pozadí_-_zaoblený_obdélník" display="none">
	<path id="okraje" fill-rule="evenodd" clip-rule="evenodd" fill="#00BCD4" d="M202.583,167.868
		c0,19.725-15.99,35.715-35.721,35.715h-285.728c-19.728,0-35.718-15.99-35.718-35.715v-285.733
		c0-19.728,15.99-35.718,35.718-35.718h285.728c19.73,0,35.721,15.99,35.721,35.718V167.868z"/>
	<path fill-rule="evenodd" clip-rule="evenodd" fill="#00BCD4" d="M238.062,195.971c0,23.643-19.167,42.809-42.817,42.809h-342.492
		c-23.646,0-42.813-19.166-42.813-42.809v-342.5c0-23.647,19.167-42.813,42.813-42.813h342.492c23.65,0,42.817,19.167,42.817,42.813
		V195.971z"/>
	<polygon id="Uhelnik" display="inline" fill-rule="evenodd" clip-rule="evenodd" fill="#00BCD4" points="-82.197,208.937 
		-188.395,25 -82.197,-158.939 130.197,-158.939 236.395,25 130.197,208.937 	"/>
	<polygon id="Uhelnik_-_okraj" display="inline" fill-rule="evenodd" clip-rule="evenodd" fill="#00BCD4" points="-65.189,179.479 
		-154.378,25 -65.189,-129.48 113.189,-129.48 202.379,25 113.189,179.479 	"/>
</g>
<g id="_x24_ic_x5F_loc_x5F_wc_x5F_gray">
	<text transform="matrix(1 0 0 1 6.3394 30.7344)" font-family="'Roboto-Medium'" font-size="23.045">WC</text>
</g>
<g id="_x24_ic_x5F_loc_x5F_unknown_x5F_gray" display="none">
	<text transform="matrix(1 0 0 1 14.9692 38.8525)" display="inline" font-family="'Roboto-Medium'" font-size="37.1377">?</text>
</g>
<g id="_x24_ic_x5F_loc_x5F_living_x5F_room_x5F_gray" display="none">
	<g display="inline">
		<path d="M11.648,27.624h10.979c0.337,0,0.609-0.271,0.609-0.608V16.037c0-0.337-0.272-0.609-0.609-0.609H11.648
			c-0.337,0-0.609,0.272-0.609,0.609v10.979C11.039,27.353,11.312,27.624,11.648,27.624z"/>
		<path d="M25.325,27.624h10.979c0.337,0,0.608-0.271,0.608-0.608V16.037c0-0.337-0.271-0.609-0.608-0.609H25.325
			c-0.337,0-0.609,0.272-0.609,0.609v10.979C24.716,27.353,24.988,27.624,25.325,27.624z"/>
		<path d="M6.369,29.574v-0.431c0-0.337,0.273-0.61,0.61-0.61h2.903v-5.912c0-0.337-0.272-0.611-0.609-0.611H6.596
			c-0.337,0-0.61,0.274-0.61,0.611v6.953c0,0.335,0.273,0.608,0.61,0.608h0.384C6.643,30.183,6.369,29.909,6.369,29.574z"/>
		<path d="M38.116,29.574v-1.041H9.883v1.041c0,0.335-0.272,0.608-0.609,0.608h29.452C38.389,30.183,38.116,29.909,38.116,29.574z"
			/>
		<path d="M9.883,29.574v-1.041H6.979c-0.337,0-0.61,0.273-0.61,0.61v0.431c0,0.335,0.273,0.608,0.61,0.608h2.294
			C9.61,30.183,9.883,29.909,9.883,29.574z"/>
		<path d="M41.404,22.01h-2.679c-0.337,0-0.609,0.274-0.609,0.611v5.912h0.92c0.337,0,0.61,0.273,0.61,0.61v0.431
			c0,0.335-0.273,0.608-0.61,0.608h2.368c0.337,0,0.61-0.273,0.61-0.608v-6.953C42.015,22.284,41.741,22.01,41.404,22.01z"/>
		<path d="M39.646,29.574v-0.431c0-0.337-0.273-0.61-0.61-0.61h-0.92v1.041c0,0.335,0.272,0.608,0.609,0.608h0.311
			C39.373,30.183,39.646,29.909,39.646,29.574z"/>
		<path d="M12.464,30.718h-1.237c-0.17,0-0.309,0.138-0.309,0.309v1.237c0,0.171,0.139,0.309,0.309,0.309h1.237
			c0.171,0,0.31-0.138,0.31-0.309v-1.237C12.773,30.855,12.635,30.718,12.464,30.718z"/>
		<path d="M36.727,30.718h-1.237c-0.171,0-0.311,0.138-0.311,0.309v1.237c0,0.171,0.14,0.309,0.311,0.309h1.237
			c0.171,0,0.309-0.138,0.309-0.309v-1.237C37.035,30.855,36.897,30.718,36.727,30.718z"/>
	</g>
</g>
<g id="_x24_ic_x5F_loc_x5F_bathroom_x5F_gray" display="none">
	<g display="inline">
		<polygon points="30.504,10.257 40.488,27.494 42.201,26.502 31.693,8.358 31.681,8.365 31.681,10.257 		"/>
		<polygon points="20.459,10.257 18.479,10.257 18.479,14.959 19.47,14.959 20.459,14.959 		"/>
		<polygon points="20.459,10.257 30.504,10.257 29.979,9.351 31.681,8.365 31.681,8.276 18.479,8.276 18.479,8.358 20.459,8.358 		
			"/>
		<polygon points="30.504,10.257 31.681,10.257 31.681,8.365 29.979,9.351 		"/>
		<rect x="18.479" y="8.358" width="1.98" height="1.898"/>
		<path d="M5.799,28.63h27.342c0-7.551-6.121-13.671-13.67-13.671C11.919,14.959,5.799,21.079,5.799,28.63z M31.681,25.854v1.979
			H6.975v-1.979H31.681z"/>
		<path d="M32.589,33.48c0-0.01-0.001-0.02-0.002-0.029c0.001,0.034,0,0.066-0.001,0.1C32.586,33.526,32.589,33.504,32.589,33.48z"
			/>
		<path d="M32.583,33.595c-0.021,0.233-0.095,0.429-0.231,0.559c-0.106,0.101-0.282,0.191-0.492,0.261
			c-0.053,0.112-0.106,0.224-0.162,0.334C32.181,34.554,32.538,34.133,32.583,33.595z"/>
		<path d="M29.751,32.835c0-0.001,0.001-0.003,0.002-0.004C29.752,32.832,29.751,32.834,29.751,32.835z"/>
		<path d="M29.677,33.111c0.013-0.085,0.037-0.171,0.068-0.259c-0.067,0.169-0.104,0.354-0.104,0.549
			c0,0.81,0.632,1.466,1.441,1.466c0.218,0,0.426-0.043,0.615-0.119c0.056-0.11,0.109-0.222,0.162-0.334
			C30.971,34.705,29.442,34.597,29.677,33.111z"/>
		<path d="M32.586,33.551c-0.001,0.014-0.002,0.029-0.003,0.044C32.584,33.581,32.585,33.564,32.586,33.551z"/>
		<path d="M32.587,33.451c0-0.198-0.032-0.418-0.096-0.647c-0.009,0.028-0.019,0.058-0.028,0.085
			C32.54,33.064,32.583,33.256,32.587,33.451z"/>
		<path d="M29.745,32.853c0.002-0.006,0.004-0.013,0.006-0.018C29.749,32.84,29.746,32.847,29.745,32.853z"/>
		<path d="M31.082,31.936c0.604,0,1.146,0.409,1.381,0.953c0.01-0.027,0.02-0.057,0.028-0.085c-0.164-0.588-0.522-1.228-1.009-1.688
			c-1.225-1.158-1.365-1.146-1.346-1.083c0.424,1.411-0.153,2.16-0.384,2.798C29.969,32.306,30.476,31.936,31.082,31.936z"/>
		<path d="M31.859,34.414c0.21-0.069,0.386-0.16,0.492-0.261c0.137-0.13,0.211-0.325,0.231-0.559
			c0.001-0.015,0.002-0.03,0.003-0.044c0.001-0.033,0.002-0.065,0.001-0.1c-0.004-0.195-0.047-0.387-0.124-0.563
			C32.292,33.412,32.09,33.921,31.859,34.414z"/>
		<path d="M31.859,34.414c0.23-0.493,0.433-1.002,0.604-1.525c-0.235-0.544-0.777-0.953-1.381-0.953
			c-0.606,0-1.113,0.37-1.329,0.896c-0.001,0.001-0.002,0.003-0.002,0.004c-0.002,0.005-0.004,0.012-0.006,0.018
			c-0.031,0.088-0.056,0.174-0.068,0.259C29.442,34.597,30.971,34.705,31.859,34.414z"/>
		<path d="M21.994,32.673c0.001-0.001,0.001-0.003,0.001-0.005C21.995,32.67,21.995,32.672,21.994,32.673z"/>
		<path d="M21.919,32.95c0.014-0.086,0.038-0.172,0.068-0.26c-0.066,0.17-0.104,0.355-0.104,0.55c0,0.809,0.632,1.465,1.441,1.465
			c0.771,0,1.439-0.524,1.501-1.272c-0.021,0.234-0.095,0.429-0.231,0.559C24.039,34.518,21.629,34.787,21.919,32.95z"/>
		<path d="M24.832,33.318c0-0.01-0.001-0.02-0.001-0.029c0,0.033,0,0.067-0.002,0.099C24.83,33.365,24.832,33.342,24.832,33.318z"/>
		<path d="M23.325,31.774c0.8,0,1.489,0.717,1.506,1.515c-0.001-0.71-0.43-1.697-1.106-2.336c-1.224-1.157-1.364-1.145-1.346-1.082
			c0.424,1.412-0.152,2.16-0.384,2.797C22.211,32.143,22.718,31.774,23.325,31.774z"/>
		<path d="M21.987,32.69c0.002-0.006,0.004-0.012,0.006-0.018C21.991,32.679,21.99,32.685,21.987,32.69z"/>
		<path d="M24.828,33.388c-0.001,0.016-0.001,0.03-0.002,0.045C24.827,33.418,24.827,33.403,24.828,33.388z"/>
		<path d="M23.325,31.774c-0.606,0-1.114,0.368-1.33,0.894c0,0.002,0,0.004-0.001,0.005c-0.002,0.006-0.004,0.012-0.006,0.018
			c-0.031,0.088-0.055,0.174-0.068,0.26c-0.29,1.837,2.12,1.567,2.676,1.041c0.136-0.13,0.21-0.324,0.231-0.559
			c0.001-0.015,0.001-0.029,0.002-0.045c0.002-0.031,0.002-0.065,0.002-0.099C24.813,32.491,24.125,31.774,23.325,31.774z"/>
		<path d="M17.769,33.318c0-0.01-0.001-0.02-0.001-0.029c0,0.033,0,0.067-0.002,0.099C17.766,33.365,17.769,33.342,17.769,33.318z"
			/>
		<path d="M14.931,32.673c0-0.001,0.001-0.003,0.001-0.005C14.932,32.67,14.931,32.672,14.931,32.673z"/>
		<path d="M14.855,32.95c0.014-0.086,0.039-0.172,0.069-0.26c-0.067,0.17-0.104,0.355-0.104,0.55c0,0.809,0.632,1.465,1.441,1.465
			c0.771,0,1.438-0.524,1.5-1.272c-0.021,0.234-0.095,0.429-0.231,0.559C16.976,34.518,14.566,34.787,14.855,32.95z"/>
		<path d="M14.925,32.69c0.001-0.006,0.003-0.012,0.006-0.018C14.929,32.679,14.926,32.685,14.925,32.69z"/>
		<path d="M16.262,31.774c0.799,0,1.489,0.717,1.505,1.515c0-0.71-0.43-1.697-1.106-2.336c-1.224-1.157-1.364-1.145-1.345-1.082
			c0.425,1.412-0.152,2.16-0.384,2.797C15.148,32.143,15.656,31.774,16.262,31.774z"/>
		<path d="M17.765,33.388c0,0.016-0.001,0.03-0.002,0.045C17.764,33.418,17.764,33.403,17.765,33.388z"/>
		<path d="M16.262,31.774c-0.606,0-1.114,0.368-1.33,0.894c0,0.002-0.001,0.004-0.001,0.005c-0.002,0.006-0.004,0.012-0.006,0.018
			c-0.031,0.088-0.056,0.174-0.069,0.26c-0.289,1.837,2.12,1.567,2.676,1.041c0.136-0.13,0.21-0.324,0.231-0.559
			c0.001-0.015,0.002-0.029,0.002-0.045c0.002-0.031,0.002-0.065,0.002-0.099C17.751,32.491,17.062,31.774,16.262,31.774z"/>
		<path d="M10.695,33.318c0-0.01-0.001-0.02-0.001-0.029c0,0.033,0,0.067-0.002,0.099C10.693,33.365,10.695,33.342,10.695,33.318z"
			/>
		<path d="M7.782,32.95c0.013-0.086,0.038-0.172,0.068-0.26c-0.066,0.17-0.104,0.355-0.104,0.55c0,0.809,0.632,1.465,1.442,1.465
			c0.771,0,1.438-0.524,1.5-1.272c-0.021,0.234-0.095,0.429-0.23,0.559C9.902,34.518,7.493,34.787,7.782,32.95z"/>
		<path d="M7.857,32.673c0-0.001,0.001-0.003,0.001-0.005C7.858,32.67,7.857,32.672,7.857,32.673z"/>
		<path d="M7.858,32.668c0.217-0.525,0.723-0.894,1.331-0.894c0.799,0,1.489,0.717,1.504,1.515c0-0.71-0.43-1.697-1.106-2.336
			c-1.224-1.157-1.364-1.145-1.345-1.082C8.667,31.283,8.09,32.031,7.858,32.668z"/>
		<path d="M10.691,33.388c0,0.016,0,0.03-0.002,0.045C10.69,33.418,10.69,33.403,10.691,33.388z"/>
		<path d="M7.851,32.69c0.002-0.006,0.004-0.012,0.006-0.018C7.855,32.679,7.853,32.685,7.851,32.69z"/>
		<path d="M9.189,31.774c-0.608,0-1.114,0.368-1.331,0.894c0,0.002-0.001,0.004-0.001,0.005c-0.002,0.006-0.004,0.012-0.006,0.018
			c-0.03,0.088-0.055,0.174-0.068,0.26c-0.29,1.837,2.12,1.567,2.676,1.041c0.136-0.13,0.21-0.324,0.23-0.559
			c0.002-0.015,0.002-0.029,0.002-0.045c0.002-0.031,0.002-0.065,0.002-0.099C10.678,32.491,9.988,31.774,9.189,31.774z"/>
		<path d="M29.079,38.451c-0.021,0.234-0.095,0.429-0.231,0.559c-0.173,0.164-0.525,0.303-0.92,0.36
			c-0.151,0.119-0.306,0.235-0.461,0.349c0.037,0.002,0.074,0.005,0.111,0.005C28.35,39.724,29.018,39.199,29.079,38.451z"/>
		<path d="M29.082,38.407c0-0.021,0.003-0.04,0.003-0.061c-0.001,0.001-0.001,0.001-0.002,0.002
			C29.082,38.368,29.083,38.388,29.082,38.407z"/>
		<path d="M26.173,37.969c0.014-0.086,0.037-0.172,0.068-0.26c-0.066,0.169-0.104,0.354-0.104,0.55c0,0.771,0.574,1.401,1.329,1.46
			c0.155-0.113,0.31-0.229,0.461-0.349C27.054,39.499,25.973,39.233,26.173,37.969z"/>
		<path d="M29.085,38.347c0-0.004,0.001-0.007,0.001-0.01c0-0.01-0.002-0.02-0.002-0.029c0,0.015-0.001,0.027-0.001,0.041
			C29.084,38.348,29.084,38.348,29.085,38.347z"/>
		<path d="M26.247,37.691c0.001-0.001,0.001-0.003,0.002-0.004C26.248,37.688,26.248,37.69,26.247,37.691z"/>
		<path d="M29.082,38.407c-0.001,0.014-0.001,0.03-0.003,0.044C29.081,38.438,29.081,38.421,29.082,38.407z"/>
		<path d="M26.241,37.709c0.002-0.006,0.004-0.013,0.006-0.018C26.245,37.697,26.243,37.703,26.241,37.709z"/>
		<path d="M27.578,36.792c0.801,0,1.489,0.719,1.506,1.516c-0.001-0.711-0.43-1.697-1.105-2.335
			c-1.224-1.158-1.364-1.146-1.346-1.083c0.425,1.411-0.152,2.16-0.384,2.798C26.465,37.162,26.972,36.792,27.578,36.792z"/>
		<path d="M27.928,39.37c0.395-0.058,0.747-0.196,0.92-0.36c0.137-0.13,0.211-0.324,0.231-0.559c0.002-0.014,0.002-0.03,0.003-0.044
			c0.001-0.02,0-0.039,0.001-0.059C28.718,38.711,28.332,39.052,27.928,39.37z"/>
		<path d="M27.928,39.37c0.404-0.318,0.79-0.659,1.155-1.021c0-0.014,0.001-0.026,0.001-0.041c-0.017-0.797-0.705-1.516-1.506-1.516
			c-0.606,0-1.113,0.37-1.329,0.896c-0.001,0.001-0.001,0.003-0.002,0.004c-0.002,0.005-0.004,0.012-0.006,0.018
			c-0.031,0.088-0.055,0.174-0.068,0.26C25.973,39.233,27.054,39.499,27.928,39.37z"/>
		<path d="M19.021,37.969c0.014-0.086,0.038-0.172,0.068-0.26c-0.067,0.169-0.104,0.354-0.104,0.55c0,0.809,0.632,1.465,1.441,1.465
			c0.771,0,1.438-0.524,1.501-1.272c-0.021,0.234-0.095,0.429-0.232,0.559C21.141,39.536,18.731,39.805,19.021,37.969z"/>
		<path d="M21.934,38.337c0-0.01-0.001-0.02-0.001-0.029c0,0.034-0.001,0.067-0.002,0.1C21.931,38.383,21.934,38.36,21.934,38.337z"
			/>
		<path d="M19.096,37.691c0-0.001,0.001-0.003,0.002-0.004C19.097,37.688,19.096,37.69,19.096,37.691z"/>
		<path d="M20.427,36.792c0.8,0,1.489,0.719,1.506,1.516c-0.001-0.711-0.43-1.697-1.106-2.335c-1.225-1.158-1.365-1.146-1.346-1.083
			c0.424,1.411-0.153,2.16-0.383,2.798C19.313,37.162,19.82,36.792,20.427,36.792z"/>
		<path d="M19.089,37.709c0.002-0.006,0.004-0.013,0.006-0.018C19.093,37.697,19.092,37.703,19.089,37.709z"/>
		<path d="M21.93,38.407c-0.001,0.014-0.001,0.03-0.002,0.044C21.929,38.438,21.929,38.421,21.93,38.407z"/>
		<path d="M20.427,36.792c-0.606,0-1.114,0.37-1.329,0.896c-0.001,0.001-0.002,0.003-0.002,0.004
			c-0.002,0.005-0.004,0.012-0.006,0.018c-0.031,0.088-0.055,0.174-0.068,0.26c-0.29,1.836,2.12,1.567,2.675,1.041
			c0.137-0.13,0.211-0.324,0.232-0.559c0.001-0.014,0.001-0.03,0.002-0.044c0.001-0.032,0.002-0.065,0.002-0.1
			C21.916,37.511,21.227,36.792,20.427,36.792z"/>
		<path d="M15.269,38.175c0-0.01-0.001-0.02-0.002-0.029c0,0.033,0,0.067-0.001,0.099C15.267,38.222,15.269,38.198,15.269,38.175z"
			/>
		<path d="M12.356,37.807c0.013-0.086,0.038-0.172,0.068-0.26c-0.066,0.171-0.104,0.355-0.104,0.55c0,0.81,0.632,1.465,1.442,1.465
			c0.771,0,1.438-0.523,1.5-1.272c-0.021,0.234-0.096,0.429-0.231,0.559C14.477,39.375,12.067,39.644,12.356,37.807z"/>
		<path d="M12.432,37.529c0-0.002,0-0.003,0.001-0.005C12.432,37.526,12.432,37.527,12.432,37.529z"/>
		<path d="M13.763,36.631c0.8,0,1.489,0.717,1.504,1.515c0-0.71-0.429-1.696-1.105-2.336c-1.225-1.157-1.364-1.145-1.345-1.082
			c0.424,1.412-0.153,2.161-0.384,2.797C12.649,36.999,13.156,36.631,13.763,36.631z"/>
		<path d="M12.425,37.547c0.002-0.006,0.004-0.011,0.007-0.018C12.429,37.536,12.427,37.541,12.425,37.547z"/>
		<path d="M15.266,38.244c-0.001,0.016-0.001,0.03-0.002,0.045C15.264,38.274,15.265,38.26,15.266,38.244z"/>
		<path d="M13.763,36.631c-0.607,0-1.114,0.368-1.33,0.894c-0.001,0.002-0.001,0.003-0.001,0.005
			c-0.002,0.007-0.004,0.012-0.007,0.018c-0.031,0.088-0.056,0.174-0.068,0.26c-0.29,1.837,2.12,1.568,2.675,1.041
			c0.136-0.13,0.211-0.324,0.231-0.559c0.001-0.015,0.001-0.029,0.002-0.045c0.001-0.031,0.001-0.065,0.001-0.099
			C15.251,37.348,14.563,36.631,13.763,36.631z"/>
	</g>
</g>
<g id="_x24_ic_x5F_loc_x5F_bedroom_x5F_gray" display="none">
	<g display="inline">
		<polygon points="7.205,27.163 8.38,27.163 8.38,13.75 6.029,13.75 6.029,34.25 8.38,34.25 8.38,29.495 7.205,29.495 		"/>
		<polygon points="39.621,22.769 39.621,27.163 41.209,27.163 41.209,29.495 39.621,29.495 39.621,34.25 41.972,34.25 
			41.972,22.769 		"/>
		<rect x="8.38" y="27.163" width="31.241" height="2.332"/>
		<rect x="7.205" y="27.163" width="1.175" height="2.332"/>
		<rect x="39.621" y="27.163" width="1.588" height="2.332"/>
		<path d="M10.352,26.166h6.102c0.421,0,0.763-0.341,0.763-0.762v-4.195c0-0.421-0.341-0.763-0.763-0.763h-6.102
			c-0.422,0-0.763,0.341-0.763,0.763v4.195C9.589,25.825,9.93,26.166,10.352,26.166z"/>
		<path d="M19.458,25.906h17.544c0.421,0,0.763-0.342,0.763-0.763v-2.288c0-0.421-0.342-0.763-0.763-0.763H19.458
			c-0.422,0-0.763,0.341-0.763,0.763v2.288C18.695,25.564,19.036,25.906,19.458,25.906z"/>
	</g>
</g>
<g id="_x24_ic_x5F_loc_x5F_dining_x5F_room_x5F_gray" display="none">
	<g display="inline">
		<path d="M30.862,6.333c0.715,0,1.296,0.402,1.296,0.899v16.18c0,0.496-0.581,0.899-1.296,0.899h-0.877v17.355h3.889V6.333H30.862z
			"/>
		<rect x="16.07" y="24.607" width="3.891" height="17.06"/>
		<path d="M14.724,23.088h1.346V7.232c0-0.497-0.29-0.899-0.648-0.899h-0.648c-0.358,0-0.648,0.402-0.648,0.899v16.18
			c0,0.08,0.008,0.158,0.022,0.231C14.219,23.324,14.449,23.088,14.724,23.088z"/>
		<path d="M21.257,6.333h-0.648c-0.358,0-0.648,0.402-0.648,0.899v15.856h1.346c0.275,0,0.506,0.235,0.577,0.555
			c0.014-0.073,0.022-0.151,0.022-0.231V7.232C21.905,6.735,21.616,6.333,21.257,6.333z"/>
		<path d="M18.988,7.232c0-0.497-0.291-0.899-0.648-0.899h-0.648c-0.358,0-0.649,0.402-0.649,0.899v15.856h1.946V7.232z"/>
		<path d="M29.565,6.333c-0.717,0-1.298,0.402-1.298,0.899v16.18c0,0.496,0.581,0.899,1.298,0.899h0.42V6.333H29.565z"/>
		<path d="M32.158,23.412V7.232c0-0.497-0.581-0.899-1.296-0.899h-0.877v17.979h0.877C31.577,24.312,32.158,23.908,32.158,23.412z"
			/>
		<path d="M17.201,24c-0.098-0.158-0.159-0.362-0.159-0.588v-0.324H16.07v0.324c0,0.496-0.29,0.899-0.648,0.899h-0.648
			c-0.3,0-0.552-0.284-0.626-0.668c-0.014,0.065-0.022,0.134-0.022,0.204c0,0.419,0.269,0.76,0.599,0.76h1.346V24H17.201z"/>
		<path d="M21.257,24.312h-0.648c-0.358,0-0.648-0.403-0.648-0.899v-0.324h-0.973v0.324c0,0.226-0.061,0.43-0.159,0.588h1.131v0.607
			h1.346c0.331,0,0.599-0.34,0.599-0.76c0-0.07-0.008-0.139-0.022-0.204C21.809,24.027,21.558,24.312,21.257,24.312z"/>
		<path d="M18.83,24c-0.119,0.19-0.294,0.312-0.49,0.312h-0.648c-0.196,0-0.372-0.122-0.49-0.312H16.07v0.607h3.891V24H18.83z"/>
		<path d="M14.773,24.312h0.648c0.358,0,0.648-0.403,0.648-0.899v-0.324h-1.346c-0.275,0-0.505,0.235-0.576,0.555
			C14.222,24.027,14.474,24.312,14.773,24.312z"/>
		<path d="M21.307,23.088h-1.346v0.324c0,0.496,0.29,0.899,0.648,0.899h0.648c0.3,0,0.551-0.284,0.626-0.668
			C21.813,23.324,21.582,23.088,21.307,23.088z"/>
		<path d="M17.201,24h1.628c0.098-0.158,0.159-0.362,0.159-0.588v-0.324h-1.946v0.324C17.042,23.638,17.103,23.842,17.201,24z"/>
		<path d="M17.691,24.312h0.648c0.196,0,0.371-0.122,0.49-0.312h-1.628C17.32,24.19,17.495,24.312,17.691,24.312z"/>
	</g>
</g>
<g id="_x24_ic_x5F_loc_x5F_garden_x5F_gray" display="none">
	<g display="inline">
		<path d="M31.976,18.458c0,0-0.394,1.917-1.304,4.45c0.645-0.045,1.282-0.071,1.906-0.083c1.353-3.804,1.882-6.856,1.882-6.856
			c-0.166,0.167-2.983,0.643-6.541,1.837c0.24,0.529,0.478,1.079,0.707,1.645C30.522,18.849,31.873,18.56,31.976,18.458z"/>
		<path d="M32.43,34.437c0.006-0.005,0.012-0.013,0.018-0.019c-0.311,0.236-0.627,0.456-0.947,0.657
			C31.861,34.904,32.176,34.69,32.43,34.437z"/>
		<path d="M16.45,18.452c0,0,1.294,0.266,3.16,0.865c0.238-0.563,0.483-1.109,0.731-1.634c-3.579-1.229-6.38-1.715-6.38-1.715
			c0.169,0.168,0.656,3.063,1.888,6.69c0.636,0.039,1.283,0.095,1.934,0.169C16.945,20.407,16.569,18.572,16.45,18.452z"/>
		<path d="M30.054,22.957c-0.096-0.097-0.192-0.193-0.291-0.288c0.03,0.102,0.06,0.204,0.09,0.306
			C29.919,22.969,29.986,22.963,30.054,22.957z"/>
		<path d="M23.403,36.963c-1.583-0.185-2.96-0.687-3.934-1.39c-1.48,0.003-2.732-0.39-3.478-1.135
			c-0.635-0.636-1.015-1.641-1.112-2.842c-3.384-3.201-5.527-6.865-5.761-6.976c0,0,3.36-0.482,7.38-0.175
			c-0.236-0.609-0.452-1.208-0.649-1.788c-5.349-0.332-9.912,0.465-9.912,0.465c0.344,0.162,3.79,6.567,9.232,11.042
			c2.853,2.345,6.205,3.103,8.981,2.873c-0.025,0.001-0.051,0.002-0.077,0.002C23.854,37.041,23.63,37.014,23.403,36.963z"/>
		<path d="M18.187,34.097c0-0.001-0.001-0.002-0.001-0.002c-0.592-0.308-1.174-0.681-1.734-1.128
			c-0.55-0.438-1.075-0.899-1.573-1.37c0.097,1.201,0.477,2.206,1.112,2.842c0.746,0.745,1.998,1.138,3.478,1.135
			C18.877,35.146,18.435,34.645,18.187,34.097z"/>
		<path d="M17.068,24.495c0.275-0.386,0.577-0.763,0.905-1.128c-0.066-0.183-0.129-0.362-0.19-0.538
			c-0.651-0.075-1.298-0.13-1.934-0.169c0.197,0.58,0.413,1.178,0.649,1.788C16.687,24.46,16.876,24.477,17.068,24.495z"/>
		<path d="M18.023,23.981c0.024-0.094,0.048-0.187,0.073-0.281c-0.042-0.112-0.083-0.224-0.123-0.334
			c-0.329,0.365-0.63,0.743-0.905,1.128c0.271,0.025,0.544,0.055,0.819,0.088C17.928,24.383,17.973,24.183,18.023,23.981z"/>
		<path d="M18.322,22.894c-0.18-0.023-0.36-0.045-0.54-0.066c0.061,0.176,0.125,0.355,0.19,0.538c0.1-0.111,0.202-0.22,0.306-0.328
			C18.293,22.99,18.308,22.942,18.322,22.894z"/>
		<path d="M18.279,23.038c-0.104,0.108-0.207,0.217-0.306,0.328c0.041,0.11,0.081,0.222,0.123,0.334
			C18.155,23.479,18.216,23.258,18.279,23.038z"/>
		<path d="M17.629,27.008c-0.004,0.01-0.009,0.021-0.014,0.03c0.004,0.01,0.009,0.02,0.014,0.029
			C17.629,27.048,17.629,27.027,17.629,27.008z"/>
		<path d="M32.578,22.825c-0.204,0.574-0.427,1.166-0.67,1.766c3.728-0.11,6.741,0.433,6.941,0.343c0,0-2.09,3.252-5.287,6.264
			c-0.038,1.363-0.422,2.514-1.115,3.22c0.041-0.03,0.082-0.062,0.121-0.093c5.632-4.378,9.495-10.816,9.495-10.816
			C41.799,23.626,37.622,22.734,32.578,22.825z"/>
		<path d="M28.466,35.56c-0.935,0.722-2.295,1.237-3.87,1.433c-0.104,0.019-0.207,0.032-0.309,0.04
			c2.263,0.088,4.839-0.463,7.213-1.957C30.689,35.458,29.637,35.626,28.466,35.56z"/>
		<path d="M30.484,23.419c0.343,0.385,0.654,0.783,0.938,1.19c0.164-0.007,0.325-0.013,0.486-0.018
			c0.243-0.6,0.466-1.191,0.67-1.766c-0.624,0.011-1.262,0.038-1.906,0.083C30.611,23.076,30.549,23.246,30.484,23.419z"/>
		<path d="M30.484,23.419c0.064-0.173,0.127-0.343,0.188-0.511c-0.205,0.014-0.412,0.031-0.618,0.049
			C30.202,23.109,30.346,23.262,30.484,23.419z"/>
		<path d="M31.316,33.103c-0.555,0.418-1.129,0.769-1.71,1.057c-0.015,0.035-0.03,0.07-0.046,0.104
			c-0.226,0.479-0.601,0.915-1.095,1.296c1.171,0.066,2.224-0.102,3.034-0.484c0.32-0.201,0.637-0.421,0.947-0.657
			c0.693-0.706,1.077-1.856,1.115-3.22C32.863,31.856,32.111,32.503,31.316,33.103z"/>
		<path d="M30.276,24.682c0.387-0.032,0.77-0.056,1.146-0.073c-0.283-0.407-0.595-0.805-0.938-1.19
			c-0.097,0.259-0.2,0.524-0.308,0.792C30.213,24.368,30.246,24.525,30.276,24.682z"/>
		<path d="M29.853,22.975c0.095,0.333,0.186,0.668,0.27,1.006c0.019,0.077,0.037,0.154,0.055,0.23
			c0.107-0.269,0.211-0.533,0.308-0.792c-0.139-0.157-0.282-0.31-0.431-0.462C29.986,22.963,29.919,22.969,29.853,22.975z"/>
		<path d="M19.469,35.573c0.974,0.703,2.351,1.205,3.934,1.39c-0.837-0.188-1.712-0.716-2.521-1.506
			C20.395,35.534,19.921,35.572,19.469,35.573z"/>
		<path d="M24.596,36.992c1.575-0.195,2.935-0.711,3.87-1.433c-0.378-0.021-0.769-0.067-1.167-0.139
			C26.435,36.278,25.491,36.832,24.596,36.992z"/>
		<path d="M20.402,34.948c-0.318-0.083-0.638-0.182-0.958-0.298c-0.477-0.12-0.903-0.311-1.257-0.554
			c0.248,0.548,0.69,1.05,1.282,1.477c0.452-0.001,0.926-0.039,1.413-0.116C20.719,35.299,20.559,35.129,20.402,34.948z"/>
		<path d="M27.299,35.421c0.398,0.071,0.789,0.118,1.167,0.139c0.494-0.381,0.869-0.817,1.095-1.296
			c0.016-0.034,0.031-0.069,0.046-0.104c-0.591,0.292-1.189,0.521-1.783,0.691C27.652,35.053,27.478,35.243,27.299,35.421z"/>
		<path d="M19.444,34.65c0.32,0.116,0.64,0.215,0.958,0.298c-0.048-0.055-0.096-0.111-0.143-0.168
			C19.975,34.76,19.702,34.715,19.444,34.65z"/>
		<polygon points="18.186,34.095 18.187,34.097 18.187,34.096 		"/>
		<path d="M18.187,34.097c0.354,0.243,0.78,0.434,1.257,0.554C19.023,34.496,18.603,34.313,18.187,34.097
			C18.187,34.096,18.187,34.096,18.187,34.097z"/>
		<path d="M24.15,37.039c0.045-0.002,0.091-0.004,0.137-0.007c-0.014-0.001-0.028-0.002-0.042-0.003
			C24.213,37.033,24.182,37.036,24.15,37.039z"/>
		<path d="M24.076,14.438c0,0,1.046,1.587,2.175,3.964c0.568-0.216,1.127-0.415,1.668-0.596c-1.829-4.021-3.846-6.884-3.846-6.884
			c0,0.254-1.935,2.956-3.732,6.761c0.542,0.186,1.102,0.39,1.672,0.611C23.098,16.09,24.076,14.603,24.076,14.438z"/>
		<path d="M26.972,20.014c0.583-0.212,1.139-0.4,1.654-0.563c-0.229-0.566-0.467-1.115-0.707-1.645
			c-0.541,0.182-1.1,0.38-1.668,0.596C26.49,18.906,26.733,19.446,26.972,20.014z"/>
		<path d="M27.473,20.925c0.859,0.516,1.621,1.106,2.29,1.745c-0.331-1.111-0.721-2.191-1.137-3.219
			c-0.516,0.164-1.071,0.351-1.654,0.563c0.11,0.263,0.219,0.532,0.326,0.807C27.356,20.855,27.415,20.89,27.473,20.925z"/>
		<path d="M21.271,19.892c0.246-0.565,0.497-1.1,0.742-1.598c-0.571-0.221-1.13-0.425-1.672-0.611
			c-0.248,0.525-0.493,1.071-0.731,1.634C20.125,19.483,20.684,19.674,21.271,19.892z"/>
		<path d="M29.853,22.975c-0.03-0.102-0.06-0.204-0.09-0.306c-0.669-0.639-1.431-1.229-2.29-1.745
			c-0.058-0.035-0.116-0.07-0.175-0.104c0.294,0.755,0.572,1.551,0.815,2.37C28.694,23.101,29.275,23.03,29.853,22.975z"/>
		<path d="M18.409,22.906c0.691-0.695,1.489-1.335,2.397-1.893c0.151-0.385,0.307-0.759,0.465-1.122
			c-0.587-0.218-1.146-0.409-1.662-0.574c-0.476,1.131-0.92,2.333-1.288,3.577C18.351,22.898,18.38,22.902,18.409,22.906z"/>
		<path d="M20.806,21.013c-0.909,0.558-1.707,1.198-2.397,1.893c0.547,0.073,1.096,0.16,1.643,0.263
			C20.278,22.424,20.535,21.702,20.806,21.013z"/>
		<path d="M23.403,36.963c0.227,0.051,0.451,0.078,0.67,0.078c0.026,0,0.052-0.001,0.077-0.002c0.032-0.003,0.063-0.006,0.096-0.01
			C23.959,37.018,23.678,36.995,23.403,36.963z"/>
		<path d="M18.096,23.7c-0.025,0.094-0.049,0.187-0.073,0.281c-0.051,0.202-0.096,0.402-0.137,0.602
			c0.194,0.023,0.388,0.049,0.583,0.077C18.337,24.334,18.213,24.014,18.096,23.7z"/>
		<path d="M18.322,22.894c-0.014,0.048-0.029,0.096-0.043,0.144c0.043-0.044,0.086-0.088,0.129-0.132
			C18.38,22.902,18.351,22.898,18.322,22.894z"/>
		<path d="M19.076,24.753c0.231-0.276,0.483-0.543,0.751-0.802c0.071-0.263,0.146-0.524,0.224-0.782
			c-0.547-0.104-1.096-0.19-1.643-0.263c-0.043,0.044-0.086,0.088-0.129,0.132c-0.063,0.22-0.125,0.44-0.183,0.662
			c0.117,0.313,0.241,0.634,0.374,0.959C18.671,24.688,18.874,24.72,19.076,24.753z"/>
		<path d="M19.655,24.631c0.054-0.228,0.112-0.455,0.173-0.68c-0.269,0.259-0.52,0.526-0.751,0.802
			c0.177,0.029,0.354,0.061,0.531,0.093C19.622,24.775,19.638,24.703,19.655,24.631z"/>
		<path d="M18.858,29.378c-0.448-0.759-0.857-1.533-1.229-2.311c-0.007,1.285,0.18,2.509,0.508,3.63
			c0.058-0.042,0.117-0.082,0.179-0.12C18.459,30.183,18.64,29.78,18.858,29.378z"/>
		<path d="M18.47,24.659c-0.195-0.028-0.389-0.053-0.583-0.077c-0.167,0.827-0.249,1.637-0.258,2.425
			c0.284-0.604,0.642-1.205,1.075-1.784C18.623,25.034,18.545,24.846,18.47,24.659z"/>
		<path d="M18.858,29.378c0.174-0.321,0.371-0.643,0.591-0.961c-0.07-0.558-0.098-1.138-0.074-1.732
			c-0.241-0.49-0.464-0.979-0.67-1.461c-0.433,0.579-0.792,1.181-1.075,1.784c0,0.02,0,0.04,0,0.06
			C18.001,27.845,18.41,28.619,18.858,29.378z"/>
		<path d="M18.47,24.659c0.076,0.187,0.153,0.375,0.234,0.564c0.119-0.158,0.242-0.316,0.372-0.47
			C18.874,24.72,18.671,24.688,18.47,24.659z"/>
		<path d="M19.076,24.753c-0.13,0.154-0.253,0.312-0.372,0.47c0.206,0.481,0.429,0.971,0.67,1.461
			c0.023-0.6,0.098-1.213,0.232-1.838C19.43,24.814,19.253,24.782,19.076,24.753z"/>
		<path d="M24.246,37.029c0.014,0.001,0.027,0.002,0.042,0.003c0.102-0.008,0.205-0.021,0.309-0.04
			C24.48,37.007,24.363,37.02,24.246,37.029z"/>
		<path d="M30.276,24.682c-0.03-0.156-0.063-0.313-0.1-0.47c-0.066,0.165-0.135,0.33-0.204,0.497
			C30.074,24.699,30.176,24.69,30.276,24.682z"/>
		<path d="M28.237,23.619c0.413,0.366,0.79,0.752,1.125,1.154c0.204-0.024,0.408-0.045,0.61-0.065
			c0.069-0.167,0.138-0.332,0.204-0.497c-0.018-0.077-0.036-0.154-0.055-0.23c-0.084-0.337-0.175-0.672-0.27-1.006
			c-0.577,0.055-1.158,0.126-1.739,0.215C28.155,23.333,28.196,23.475,28.237,23.619z"/>
		<path d="M28.552,24.88c0.271-0.041,0.541-0.076,0.811-0.107c-0.335-0.402-0.712-0.789-1.125-1.154
			c0.093,0.334,0.18,0.672,0.26,1.013C28.516,24.714,28.534,24.798,28.552,24.88z"/>
		<path d="M26.242,35.176c-0.763,0.097-1.498,0.102-2.18,0.032c-0.652,0.084-1.359,0.096-2.097,0.021
			c-0.366,0.098-0.729,0.173-1.083,0.228c0.808,0.79,1.683,1.317,2.521,1.506c0.275,0.032,0.556,0.055,0.843,0.066
			c0.118-0.01,0.235-0.022,0.351-0.037c0.895-0.16,1.838-0.714,2.703-1.571C26.952,35.358,26.599,35.276,26.242,35.176z"/>
		<path d="M20.882,35.457c0.355-0.055,0.717-0.13,1.083-0.228c-0.51-0.052-1.035-0.144-1.564-0.281
			C20.559,35.129,20.719,35.299,20.882,35.457z"/>
		<path d="M27.299,35.421c0.179-0.178,0.354-0.368,0.524-0.57c-0.533,0.153-1.063,0.26-1.581,0.325
			C26.599,35.276,26.952,35.358,27.299,35.421z"/>
		<path d="M21.966,35.229c0.737,0.074,1.445,0.063,2.097-0.021c-0.449-0.046-0.875-0.124-1.269-0.231
			C22.516,35.072,22.24,35.157,21.966,35.229z"/>
		<path d="M21.839,34.636c-0.381,0.101-0.793,0.157-1.225,0.157c-0.12,0-0.238-0.005-0.355-0.013
			c0.047,0.057,0.095,0.113,0.143,0.168c0.529,0.138,1.054,0.229,1.564,0.281c0.274-0.072,0.55-0.157,0.828-0.253
			C22.45,34.883,22.13,34.77,21.839,34.636z"/>
		<path d="M19.336,30.136c-0.144-0.212-0.284-0.431-0.418-0.655c-0.021-0.034-0.04-0.067-0.06-0.103
			c-0.218,0.402-0.399,0.805-0.543,1.199C18.613,30.392,18.958,30.24,19.336,30.136z"/>
		<path d="M19.336,30.136c0.145-0.04,0.293-0.074,0.446-0.101c-0.149-0.513-0.263-1.055-0.334-1.618
			c-0.22,0.318-0.417,0.64-0.591,0.961c0.02,0.035,0.04,0.068,0.06,0.103C19.052,29.705,19.192,29.924,19.336,30.136z"/>
		<path d="M29.739,25.254c0.283,0.382,0.533,0.772,0.751,1.168c-0.031-0.57-0.101-1.151-0.214-1.74
			c-0.101,0.008-0.202,0.017-0.304,0.026C29.896,24.889,29.819,25.071,29.739,25.254z"/>
		<path d="M29.973,24.708c-0.202,0.02-0.406,0.041-0.61,0.065c0.133,0.157,0.256,0.319,0.377,0.481
			C29.819,25.071,29.896,24.889,29.973,24.708z"/>
		<path d="M29.193,29.971c0.241,0.531,0.418,1.057,0.53,1.561c0.433-1.163,0.713-2.461,0.774-3.843
			c-0.311,0.604-0.642,1.205-0.994,1.793C29.403,29.648,29.299,29.811,29.193,29.971z"/>
		<path d="M28.778,27.246c-0.009,0.569-0.062,1.122-0.153,1.651c0.217,0.357,0.407,0.716,0.568,1.073
			c0.105-0.16,0.21-0.322,0.311-0.489c0.353-0.588,0.684-1.188,0.994-1.793c0.019-0.415,0.016-0.838-0.008-1.267
			c-0.218-0.396-0.468-0.786-0.751-1.168C29.45,25.91,29.13,26.58,28.778,27.246z"/>
		<path d="M28.778,27.246c0.352-0.666,0.672-1.336,0.961-1.992c-0.121-0.162-0.244-0.324-0.377-0.481
			c-0.27,0.031-0.539,0.066-0.811,0.107C28.721,25.69,28.79,26.483,28.778,27.246z"/>
		<path d="M24.063,35.208c0.682,0.069,1.417,0.064,2.18-0.032c-0.273-0.078-0.55-0.167-0.825-0.268
			C25.004,35.045,24.549,35.146,24.063,35.208z"/>
		<path d="M27.421,33.558c-0.377,0.576-1.086,1.047-2.004,1.351c0.275,0.101,0.552,0.189,0.825,0.268
			c0.519-0.065,1.048-0.172,1.581-0.325c0.309-0.366,0.604-0.771,0.876-1.212C28.299,33.654,27.869,33.628,27.421,33.558z"/>
		<path d="M29.193,29.971c-0.445,0.673-0.938,1.282-1.463,1.829c0.079,0.575,0.024,1.096-0.173,1.517
			c-0.039,0.082-0.086,0.162-0.137,0.241c0.448,0.07,0.878,0.097,1.278,0.081c0.393-0.635,0.741-1.342,1.024-2.107
			C29.611,31.027,29.435,30.502,29.193,29.971z"/>
		<path d="M27.715,31.691c0.005,0.036,0.011,0.072,0.016,0.108c0.525-0.547,1.018-1.156,1.463-1.829
			c-0.161-0.357-0.352-0.716-0.568-1.073C28.446,29.928,28.125,30.872,27.715,31.691z"/>
		<path d="M24.842,34.68c-0.26,0.095-0.517,0.145-0.766,0.145c-0.204,0-0.413-0.033-0.625-0.098c-0.22,0.091-0.439,0.174-0.658,0.25
			c0.395,0.107,0.82,0.186,1.269,0.231c0.486-0.062,0.941-0.163,1.354-0.3C25.225,34.838,25.033,34.762,24.842,34.68z"/>
		<path d="M21.839,34.636c0.291,0.134,0.611,0.247,0.954,0.341c0.219-0.076,0.438-0.159,0.658-0.25
			c-0.271-0.081-0.546-0.213-0.818-0.39C22.39,34.459,22.124,34.561,21.839,34.636z"/>
		<path d="M24.842,34.68c0.191,0.082,0.383,0.158,0.575,0.229c0.918-0.304,1.627-0.774,2.004-1.351
			c-0.271-0.042-0.546-0.101-0.827-0.175C26.04,34.015,25.434,34.465,24.842,34.68z"/>
		<path d="M26.594,33.383c0.281,0.074,0.557,0.133,0.827,0.175c0.051-0.079,0.098-0.159,0.137-0.241
			c0.197-0.421,0.252-0.941,0.173-1.517c-0.051,0.054-0.103,0.105-0.155,0.158C27.281,32.499,26.948,32.979,26.594,33.383z"/>
		<path d="M27.575,31.958c0.053-0.053,0.104-0.104,0.155-0.158c-0.005-0.036-0.011-0.072-0.016-0.108
			C27.669,31.781,27.623,31.87,27.575,31.958z"/>
		<path d="M18.136,30.697c0.021,0.072,0.042,0.144,0.065,0.214c0.035-0.11,0.072-0.222,0.114-0.334
			C18.253,30.615,18.194,30.655,18.136,30.697z"/>
		<path d="M20.475,33.626c-0.367,0.031-0.716,0.028-1.043-0.002c0.258,0.418,0.536,0.804,0.828,1.156
			c0.117,0.008,0.235,0.013,0.355,0.013c0.432,0,0.844-0.057,1.225-0.157C21.253,34.367,20.785,34.022,20.475,33.626z"/>
		<path d="M20.475,33.626c-0.11-0.142-0.2-0.288-0.268-0.441c-0.235-0.531-0.242-1.214-0.042-1.96
			c-0.289-0.342-0.566-0.704-0.828-1.089c-0.378,0.104-0.723,0.256-1.021,0.441c-0.042,0.112-0.079,0.224-0.114,0.334
			c0.312,1,0.735,1.913,1.23,2.713C19.758,33.654,20.108,33.657,20.475,33.626z"/>
		<path d="M19.783,30.035c-0.153,0.026-0.302,0.061-0.446,0.101c0.261,0.385,0.539,0.747,0.828,1.089
			c0.006-0.023,0.013-0.047,0.02-0.07C20.032,30.801,19.897,30.427,19.783,30.035z"/>
		<path d="M21.606,33.441c-0.389,0.092-0.769,0.154-1.132,0.185c0.31,0.396,0.778,0.741,1.365,1.01
			c0.284-0.075,0.55-0.177,0.793-0.299C22.282,34.109,21.936,33.808,21.606,33.441z"/>
		<path d="M20.164,31.225c-0.199,0.746-0.192,1.429,0.042,1.96c0.068,0.153,0.158,0.3,0.268,0.441
			c0.363-0.03,0.743-0.093,1.132-0.185c-0.504-0.562-0.967-1.272-1.339-2.097C20.232,31.306,20.199,31.265,20.164,31.225z"/>
		<path d="M20.184,31.154c-0.006,0.023-0.013,0.047-0.02,0.07c0.035,0.04,0.068,0.081,0.103,0.12
			C20.238,31.282,20.211,31.219,20.184,31.154z"/>
	</g>
</g>
<g id="Vrstva_3" display="none">
</g>
</svg>
