<?xml version="1.0" encoding="utf-8"?>
<!-- Generator: Adobe Illustrator 16.0.0, SVG Export Plug-In . SVG Version: 6.00 Build 0)  -->
<!DOCTYPE svg PUBLIC "-//W3C//DTD SVG 1.1//EN" "http://www.w3.org/Graphics/SVG/1.1/DTD/svg11.dtd">
<svg version="1.1" xmlns="http://www.w3.org/2000/svg" xmlns:xlink="http://www.w3.org/1999/xlink" x="0px" y="0px"
	 width="1237.026px" height="927.77px" viewBox="0 0 1237.026 927.77" enable-background="new 0 0 1237.026 927.77"
	 xml:space="preserve">
<g id="bottom-left">
	<path display="none" fill-rule="evenodd" clip-rule="evenodd" fill="#1DB8D1" d="M362.454,533.642c42.192,0,84.396,0,126.589,0
		c21.096,36.331,42.198,72.675,63.294,109.007c-21.292,36.723-42.589,73.456-63.88,110.179c-41.997,0-84.005,0-126.002,0
		c-21.096-36.527-42.198-73.065-63.294-109.593C320.256,606.707,341.358,570.168,362.454,533.642z"/>
	<path fill-rule="evenodd" clip-rule="evenodd" fill="#FFFFFF" d="M362.453,533.643c42.192,0,84.397,0,126.589,0
		c21.096,36.332,42.199,72.675,63.295,109.007c-21.291,36.723-42.59,73.457-63.881,110.178c-41.996,0-84.006,0-126.003,0
		c-21.096-36.526-42.198-73.064-63.294-109.592C320.255,606.708,341.357,570.17,362.453,533.643z"/>
</g>
<g id="pc" display="none">
	
		<rect x="367.142" y="605.727" display="inline" fill-rule="evenodd" clip-rule="evenodd" fill="#FFFFFF" width="86.151" height="58.605"/>
	<path display="inline" fill-rule="evenodd" clip-rule="evenodd" fill="#FFFFFF" d="M367.142,666.676c0,0,0.203,0,0.586,0
		c7.553,0,85.565,0,85.565,0s0.22,7.692-8.791,7.619c-9.011-0.073-58.826,0.073-67.983,0S367.142,666.676,367.142,666.676z"/>
	<path display="inline" fill-rule="evenodd" clip-rule="evenodd" fill="#FFFFFF" d="M402.306,676.64h15.824
		c0,0-0.342,5.15,1.806,6.549c3.381,1.783,6.49,2.12,9.329,2.242c5.128,0.22,4.103,4.103,4.103,4.103h-46.299
		c0,0-1.245-4.029,4.688-4.103c2.178-0.03,7.239-0.941,9.009-2.563C402.669,681.371,402.306,676.64,402.306,676.64z"/>
	<path display="inline" fill-rule="evenodd" clip-rule="evenodd" fill="#FFFFFF" d="M458.567,605.727h12.894v62.122
		c0,0,0.073,1.758,1.172,1.758c1.1,0,1.172-1.758,1.172-1.758v-62.122h12.894c0,0,0,76.041,0,78.532c0,2.49-1.905,5.347-5.275,5.274
		c-3.369-0.074-12.088,0-15.823,0c-4.688,0.072-7.106-2.784-7.033-5.202C458.641,681.913,458.567,605.727,458.567,605.727z"/>
	<circle display="inline" fill-rule="evenodd" clip-rule="evenodd" fill="#44B4E5" cx="472.633" cy="678.397" r="4.103"/>
</g>
<g id="top-left">
	<path display="none" fill-rule="evenodd" clip-rule="evenodd" fill="#1DB8D1" d="M362.454,295.701c42.192,0,84.396,0,126.589,0
		c21.096,36.333,42.198,72.675,63.294,109.007c-21.292,36.723-42.589,73.457-63.88,110.18c-41.997,0-84.005,0-126.002,0
		c-21.096-36.528-42.198-73.066-63.294-109.593C320.256,368.767,341.358,332.229,362.454,295.701z"/>
	<path fill-rule="evenodd" clip-rule="evenodd" fill="#FFFFFF" d="M362.453,295.702c42.192,0,84.397,0,126.589,0
		c21.096,36.332,42.199,72.675,63.295,109.007c-21.291,36.723-42.59,73.457-63.881,110.178c-41.996,0-84.006,0-126.003,0
		c-21.096-36.526-42.198-73.064-63.294-109.592C320.255,368.768,341.357,332.229,362.453,295.702z"/>
</g>
<g id="wifi" display="none">
	<path display="inline" fill-rule="evenodd" clip-rule="evenodd" fill="#FFFFFF" d="M425.163,445.732
		c4.208,0,7.619,3.279,7.619,7.326c0,4.046-3.411,7.326-7.619,7.326c-4.208,0-7.619-3.28-7.619-7.326
		C417.544,449.012,420.954,445.732,425.163,445.732z"/>
	<path display="inline" fill-rule="evenodd" clip-rule="evenodd" fill="#FFFFFF" d="M425.749,422.29
		c9.545-0.037,17.736,3.883,22.856,9.963c-1.755,1.611-8.448,7.985-10.532,9.963c-3.255-3.369-6.729-5.128-12.324-5.274
		c-3.438,0,2.271,0-1.172,0c-5.604,0.146-9.047,1.905-12.307,5.274c-2.088-1.978-8.791-8.352-10.549-9.963
		c5.128-6.08,13.296-10,22.856-9.963C434.137,422.327,416.203,422.327,425.749,422.29z"/>
	<path display="inline" fill-rule="evenodd" clip-rule="evenodd" fill="#FFFFFF" d="M425.749,396.503
		c8.864,0.037,27.984,3.187,40.438,17.582c-2.455,2.491-7.875,7.802-9.963,9.963c-12.893-11.575-23.772-12.894-30.475-12.894
		c-6.703,0,5.531,0-1.172,0s-17.582,1.318-30.475,12.894c-2.088-2.161-7.509-7.472-9.963-9.963
		c12.454-14.395,31.574-17.545,40.438-17.582C433.257,396.54,417.067,396.54,425.749,396.503z"/>
	<path display="inline" fill-rule="evenodd" clip-rule="evenodd" fill="#FFFFFF" d="M425.749,371.303
		c16.483,0,39.131,5.14,58.605,24.615c-2.455,2.49-7.875,7.802-9.962,9.962c-12.894-12.893-30.268-19.926-48.643-19.926
		c-6.703,0,5.531,0-1.172,0c-17.594,0-35.859,7.143-48.643,19.926c-2.087-2.161-7.509-7.472-9.962-9.962
		c20.805-20.806,40.938-24.615,58.605-24.615C433.257,371.339,417.067,371.339,425.749,371.303z"/>
</g>
<g id="center-center">
	<path display="none" fill-rule="evenodd" clip-rule="evenodd" fill="#1DB8D1" d="M563.472,414.671c42.193,0,84.397,0,126.589,0
		c21.096,36.332,42.199,72.674,63.295,109.007c-21.291,36.722-42.59,73.456-63.881,110.179c-41.996,0-84.006,0-126.003,0
		c-21.096-36.527-42.198-73.065-63.294-109.594C521.274,487.736,542.376,451.198,563.472,414.671z"/>
	<path fill-rule="evenodd" clip-rule="evenodd" fill="#FFFFFF" d="M563.472,414.672c42.192,0,84.397,0,126.589,0
		c21.096,36.332,42.199,72.675,63.295,109.007c-21.291,36.723-42.59,73.457-63.881,110.178c-41.996,0-84.006,0-126.003,0
		c-21.096-36.526-42.198-73.064-63.294-109.592C521.273,487.737,542.376,451.199,563.472,414.672z"/>
</g>
<g id="house" display="none">
	<path display="inline" fill-rule="evenodd" clip-rule="evenodd" fill="#FFFFFF" d="M627.353,469.175l-56.261,50.987
		c0,0,0,69.521,0,72.085c0,2.563,0.439,3.516,2.93,3.516c2.491,0,35.749,0,35.749,0s0-29.962,0-32.232
		c0-1.904,1.539-2.93,2.931-2.93c0.953,0,12.893,0,12.893,0h4.688c0,0,11.941,0,12.894,0c1.393,0,2.931,1.025,2.931,2.93
		c0,2.271,0,32.232,0,32.232s33.259,0,35.75,0c2.49,0,2.93-0.952,2.93-3.516c0-2.564,0-72.085,0-72.085l-56.261-50.987l-0.586-0.587
		L627.353,469.175z"/>
	<path display="inline" fill-rule="evenodd" clip-rule="evenodd" fill="#FFFFFF" d="M628.525,441.044L709.4,513.13l-8.205,9.963
		l-72.67-65.053h-1.173l-72.671,65.053l-8.205-9.963l80.876-72.085H628.525z"/>
	<path display="inline" fill-rule="evenodd" clip-rule="evenodd" fill="#FFFFFF" d="M570.505,451.593h21.099v11.722l-21.099,18.753
		V451.593z"/>
</g>
<g id="top-right">
	<path display="none" fill-rule="evenodd" clip-rule="evenodd" fill="#1DB8D1" d="M765.662,295.701c42.192,0,84.396,0,126.589,0
		c21.096,36.333,42.198,72.675,63.294,109.007c-21.291,36.723-42.589,73.457-63.88,110.18c-41.997,0-84.006,0-126.003,0
		c-21.096-36.528-42.198-73.066-63.294-109.593C723.464,368.767,744.566,332.229,765.662,295.701z"/>
	<path fill-rule="evenodd" clip-rule="evenodd" fill="#FFFFFF" d="M765.661,295.702c42.192,0,84.397,0,126.589,0
		c21.096,36.332,42.199,72.675,63.295,109.007c-21.291,36.723-42.59,73.457-63.881,110.178c-41.996,0-84.006,0-126.003,0
		c-21.096-36.526-42.198-73.064-63.294-109.592C723.463,368.768,744.565,332.229,765.661,295.702z"/>
</g>
<g id="tv" display="none">
	<path display="inline" fill-rule="evenodd" clip-rule="evenodd" fill="#FFFFFF" d="M771.522,364.856H886.39v68.569h-50.986v7.032
		c0,0,36.519-0.476,37.508,4.103c-1.318,4.322-29.45,4.688-37.508,4.688c-7.436,0-2.967,0-11.722,0
		c-8.754,0-36.078-0.513-36.921-4.688c1.208-4.798,36.921-4.103,36.921-4.103v-7.032h-52.159V364.856z"/>
	<path display="inline" fill-rule="evenodd" clip-rule="evenodd" fill="#44B4E5" d="M776.211,368.958v60.364h106.077v-60.364
		H776.211z"/>
	<path display="inline" fill-rule="evenodd" clip-rule="evenodd" fill="#FFFFFF" d="M779.143,371.303v55.675h100.216v-55.675
		H779.143z"/>
</g>
<g id="bottom-right">
	<path display="none" fill-rule="evenodd" clip-rule="evenodd" fill="#1DB8D1" d="M765.662,533.642c42.192,0,84.396,0,126.589,0
		c21.096,36.331,42.198,72.675,63.294,109.007c-21.291,36.723-42.589,73.456-63.88,110.179c-41.997,0-84.006,0-126.003,0
		c-21.096-36.527-42.198-73.065-63.294-109.593C723.464,606.707,744.566,570.168,765.662,533.642z"/>
	<path fill-rule="evenodd" clip-rule="evenodd" fill="#FFFFFF" d="M765.661,533.643c42.192,0,84.397,0,126.589,0
		c21.096,36.332,42.199,72.675,63.295,109.007c-21.291,36.723-42.59,73.457-63.881,110.178c-41.996,0-84.006,0-126.003,0
		c-21.096-36.526-42.198-73.064-63.294-109.592C723.463,606.708,744.565,570.17,765.661,533.643z"/>
</g>
<g id="phone" display="none">
	<path display="inline" fill-rule="evenodd" clip-rule="evenodd" fill="#FFFFFF" d="M830.129,586.973c0,0,19.377,0,21.685,0
		c3.846,0,7.618,4.028,7.618,7.619c0,4.396,0,93.622,0,96.699c0,3.076-3.04,7.618-7.032,7.618c-3.993,0-22.271,0-22.271,0h-1.172
		c0,0-19.45,0-23.442,0c-3.993,0-7.033-4.542-7.033-7.618c0-3.077,0-92.304,0-96.699c0-3.591,3.773-7.619,7.618-7.619
		c2.309,0,22.857,0,22.857,0H830.129z"/>
	<path display="inline" fill-rule="evenodd" clip-rule="evenodd" fill="#44B4E5" d="M805.515,605.727h46.885v75.016h-46.885V605.727
		z"/>
	<path display="inline" fill-rule="evenodd" clip-rule="evenodd" fill="#44B4E5" d="M830.129,597.521
		c2.931,0,5.274,0.165,5.274-1.172s-2.362-1.172-5.274-1.172s1.74,0-1.172,0s-5.861-0.165-5.861,1.172s2.931,1.172,5.861,1.172
		C831.887,597.521,827.198,597.521,830.129,597.521z"/>
	<path display="inline" fill-rule="evenodd" clip-rule="evenodd" fill="#44B4E5" d="M829.249,685.431
		c2.428,0,4.396,1.967,4.396,4.396c0,2.428-1.969,4.396-4.396,4.396c-2.427,0-4.395-1.968-4.395-4.396
		C824.854,687.397,826.822,685.431,829.249,685.431z"/>
</g>
<g id="top-center">
	<path display="none" fill-rule="evenodd" clip-rule="evenodd" fill="#1DB8D1" d="M563.472,174.973c42.193,0,84.397,0,126.589,0
		c21.096,36.332,42.199,72.675,63.295,109.007c-21.291,36.723-42.59,73.457-63.881,110.179c-41.996,0-84.006,0-126.003,0
		c-21.096-36.527-42.198-73.065-63.294-109.592C521.274,248.039,542.376,211.5,563.472,174.973z"/>
	<path fill-rule="evenodd" clip-rule="evenodd" fill="#FFFFFF" d="M563.472,174.973c42.193,0,84.397,0,126.589,0
		c21.096,36.332,42.199,72.675,63.295,109.007c-21.291,36.723-42.59,73.457-63.881,110.178c-41.996,0-84.006,0-126.003,0
		c-21.096-36.526-42.198-73.064-63.294-109.592C521.274,248.039,542.376,211.5,563.472,174.973z"/>
</g>
<g id="cloud" display="none">
	<path display="inline" fill-rule="evenodd" clip-rule="evenodd" fill="#FFFFFF" d="M578.71,322.074c12.978,0,96.196,0,100.216,0
		c7.702,0,16.409-9.209,16.409-21.098c0-11.386,0,4.688,0-4.689c0-9.376-6.781-24.028-25.786-22.27
		c2.512-6.531,1.864-15.17,1.864-15.17c-0.837-13.875-14.988-26.357-28.823-26.44c-9.083,0,5.777,0-2.931,0
		c-13.145,0-26.624,8.958-29.889,26.372c-3.265-2.679-5.442-6.446-15.823-6.446c-6.865,0.083-15.991,10.047-11.135,19.34
		c-13.313-1.423-25.201,11.302-25.201,24.028c0,10.131,0-3.851,0,2.344C557.611,306.92,565.23,322.074,578.71,322.074z"/>
</g>
</svg>
